<?xml version="1.0" encoding="UTF-8" standalone="no"?>
<!DOCTYPE svg PUBLIC "-//W3C//DTD SVG 1.1//EN"
 "http://www.w3.org/Graphics/SVG/1.1/DTD/svg11.dtd">
<!-- Generated by graphviz version 15.1.0 (20260618.0150)
 -->
<!-- Title: mas_range_len Pages: 1 -->
<svg width="750pt" height="142pt"
 viewBox="0.00 0.00 750.00 142.00" xmlns="http://www.w3.org/2000/svg" xmlns:xlink="http://www.w3.org/1999/xlink">
<g id="graph0" class="graph" transform="scale(1 1) rotate(0) translate(4 138)">
<title>mas_range_len</title>
<!-- Node1 -->
<g id="Node000001" class="node">
<title>Node1</title>
<g id="a_Node000001"><a xlink:title=" ">
<polygon fill="#999999" stroke="#666666" points="742.25,-86 660.25,-86 660.25,-66 742.25,-66 742.25,-86"/>
<text xml:space="preserve" text-anchor="middle" x="701.25" y="-72.5" font-family="Helvetica,sans-Serif" font-size="10.00">mas_range_len</text>
</a>
</g>
</g>
<!-- Node2 -->
<g id="Node000002" class="node">
<title>Node2</title>
<g id="a_Node000002"><a xlink:href="execmem_8c.html#a39f8a6aafa5b520c720e70db027f653c" target="_top" xlink:title=" ">
<polygon fill="white" stroke="#666666" points="624.25,-129 498,-129 498,-109 624.25,-109 624.25,-129"/>
<text xml:space="preserve" text-anchor="middle" x="561.12" y="-115.5" font-family="Helvetica,sans-Serif" font-size="10.00">__execmem_cache_alloc</text>
</a>
</g>
</g>
<!-- Node1&#45;&gt;Node2 -->
<g id="edge1_Node000001_Node000002" class="edge">
<title>Node1&#45;&gt;Node2</title>
<g id="a_edge1_Node000001_Node000002"><a xlink:title=" ">
<path fill="none" stroke="#63b8ff" d="M656.02,-89.77C636.47,-95.85 613.86,-102.89 595.73,-108.54"/>
<polygon fill="#63b8ff" stroke="#63b8ff" points="656.86,-93.17 665.37,-86.86 654.78,-86.49 656.86,-93.17"/>
</a>
</g>
</g>
<!-- Node6 -->
<g id="Node000006" class="node">
<title>Node6</title>
<g id="a_Node000006"><a xlink:href="execmem_8c.html#a32d4cd5329d950549000c70d06ad3ed4" target="_top" xlink:title=" ">
<polygon fill="white" stroke="#666666" points="622.38,-86 499.88,-86 499.88,-66 622.38,-66 622.38,-86"/>
<text xml:space="preserve" text-anchor="middle" x="561.12" y="-72.5" font-family="Helvetica,sans-Serif" font-size="10.00">__execmem_cache_free</text>
</a>
</g>
</g>
<!-- Node1&#45;&gt;Node6 -->
<g id="edge5_Node000001_Node000006" class="edge">
<title>Node1&#45;&gt;Node6</title>
<g id="a_edge5_Node000001_Node000006"><a xlink:title=" ">
<path fill="none" stroke="#63b8ff" d="M648.69,-76C640.25,-76 631.43,-76 622.78,-76"/>
<polygon fill="#63b8ff" stroke="#63b8ff" points="648.41,-79.5 658.41,-76 648.41,-72.5 648.41,-79.5"/>
</a>
</g>
</g>
<!-- Node11 -->
<g id="Node000011" class="node">
<title>Node11</title>
<g id="a_Node000011"><a xlink:href="execmem_8c.html#a3889c800d92fea0aff9821c22e9eb8b3" target="_top" xlink:title=" ">
<polygon fill="white" stroke="#666666" points="620.5,-39 501.75,-39 501.75,-19 620.5,-19 620.5,-39"/>
<text xml:space="preserve" text-anchor="middle" x="561.12" y="-25.5" font-family="Helvetica,sans-Serif" font-size="10.00">execmem_cache_clean</text>
</a>
</g>
</g>
<!-- Node1&#45;&gt;Node11 -->
<g id="edge10_Node000001_Node000011" class="edge">
<title>Node1&#45;&gt;Node11</title>
<g id="a_edge10_Node000001_Node000011"><a xlink:title=" ">
<path fill="none" stroke="#63b8ff" d="M658.91,-61.93C637.64,-54.7 612.17,-46.03 592.69,-39.4"/>
<polygon fill="#63b8ff" stroke="#63b8ff" points="657.57,-65.17 668.16,-65.08 659.82,-58.55 657.57,-65.17"/>
</a>
</g>
</g>
<!-- Node3 -->
<g id="Node000003" class="node">
<title>Node3</title>
<g id="a_Node000003"><a xlink:href="execmem_8c.html#a96e7d0e01bca5033b3fcbfba22d3d2e8" target="_top" xlink:title=" ">
<polygon fill="white" stroke="#666666" points="451.12,-134 335.38,-134 335.38,-114 451.12,-114 451.12,-134"/>
<text xml:space="preserve" text-anchor="middle" x="393.25" y="-120.5" font-family="Helvetica,sans-Serif" font-size="10.00">execmem_cache_alloc</text>
</a>
</g>
</g>
<!-- Node2&#45;&gt;Node3 -->
<g id="edge2_Node000002_Node000003" class="edge">
<title>Node2&#45;&gt;Node3</title>
<g id="a_edge2_Node000002_Node000003"><a xlink:title=" ">
<path fill="none" stroke="#63b8ff" d="M486.66,-121.21C474.83,-121.57 462.73,-121.94 451.36,-122.28"/>
<polygon fill="#63b8ff" stroke="#63b8ff" points="486.48,-124.72 496.37,-120.92 486.27,-117.72 486.48,-124.72"/>
</a>
</g>
</g>
<!-- Node4 -->
<g id="Node000004" class="node">
<title>Node4</title>
<g id="a_Node000004"><a xlink:href="execmem_8c.html#a6024d8b5d70299df46a773ee79129853" target="_top" xlink:title=" ">
<polygon fill="white" stroke="#666666" points="254.38,-134 170.12,-134 170.12,-114 254.38,-114 254.38,-134"/>
<text xml:space="preserve" text-anchor="middle" x="212.25" y="-120.5" font-family="Helvetica,sans-Serif" font-size="10.00">execmem_alloc</text>
</a>
</g>
</g>
<!-- Node3&#45;&gt;Node4 -->
<g id="edge3_Node000003_Node000004" class="edge">
<title>Node3&#45;&gt;Node4</title>
<g id="a_edge3_Node000003_Node000004"><a xlink:title=" ">
<path fill="none" stroke="#63b8ff" d="M323.89,-124C300.63,-124 275.34,-124 254.82,-124"/>
<polygon fill="#63b8ff" stroke="#63b8ff" points="323.61,-127.5 333.61,-124 323.61,-120.5 323.61,-127.5"/>
</a>
</g>
</g>
<!-- Node5 -->
<g id="Node000005" class="node">
<title>Node5</title>
<g id="a_Node000005"><a xlink:href="execmem_8c.html#a88ae26a850a07a0ec7c97c4581ab58b6" target="_top" xlink:title=" ">
<polygon fill="white" stroke="#666666" points="100,-134 0,-134 0,-114 100,-114 100,-134"/>
<text xml:space="preserve" text-anchor="middle" x="50" y="-120.5" font-family="Helvetica,sans-Serif" font-size="10.00">execmem_alloc_rw</text>
</a>
</g>
</g>
<!-- Node4&#45;&gt;Node5 -->
<g id="edge4_Node000004_Node000005" class="edge">
<title>Node4&#45;&gt;Node5</title>
<g id="a_edge4_Node000004_Node000005"><a xlink:title=" ">
<path fill="none" stroke="#63b8ff" d="M158.65,-124C139.9,-124 118.87,-124 100.4,-124"/>
<polygon fill="#63b8ff" stroke="#63b8ff" points="158.47,-127.5 168.47,-124 158.47,-120.5 158.47,-127.5"/>
</a>
</g>
</g>
<!-- Node7 -->
<g id="Node000007" class="node">
<title>Node7</title>
<g id="a_Node000007"><a xlink:href="execmem_8c.html#a034e1db6b1cabd6eba6f861952904a1e" target="_top" xlink:title=" ">
<polygon fill="white" stroke="#666666" points="449.25,-96 337.25,-96 337.25,-76 449.25,-76 449.25,-96"/>
<text xml:space="preserve" text-anchor="middle" x="393.25" y="-82.5" font-family="Helvetica,sans-Serif" font-size="10.00">execmem_cache_free</text>
</a>
</g>
</g>
<!-- Node6&#45;&gt;Node7 -->
<g id="edge6_Node000006_Node000007" class="edge">
<title>Node6&#45;&gt;Node7</title>
<g id="a_edge6_Node000006_Node000007"><a xlink:title=" ">
<path fill="none" stroke="#63b8ff" d="M488.46,-80.32C475.45,-81.1 462.06,-81.91 449.6,-82.66"/>
<polygon fill="#63b8ff" stroke="#63b8ff" points="488.49,-83.83 498.26,-79.73 488.07,-76.84 488.49,-83.83"/>
</a>
</g>
</g>
<!-- Node9 -->
<g id="Node000009" class="node">
<title>Node9</title>
<g id="a_Node000009"><a xlink:href="execmem_8c.html#a47937bf431bb770044358b9d7a9c7263" target="_top" xlink:title=" ">
<polygon fill="white" stroke="#666666" points="462,-58 324.5,-58 324.5,-38 462,-38 462,-58"/>
<text xml:space="preserve" text-anchor="middle" x="393.25" y="-44.5" font-family="Helvetica,sans-Serif" font-size="10.00">execmem_cache_free_slow</text>
</a>
</g>
</g>
<!-- Node6&#45;&gt;Node9 -->
<g id="edge8_Node000006_Node000009" class="edge">
<title>Node6&#45;&gt;Node9</title>
<g id="a_edge8_Node000006_Node000009"><a xlink:title=" ">
<path fill="none" stroke="#63b8ff" d="M488.65,-63.94C477.86,-62.11 466.8,-60.25 456.23,-58.46"/>
<polygon fill="#63b8ff" stroke="#63b8ff" points="487.84,-67.35 498.28,-65.56 489,-60.44 487.84,-67.35"/>
</a>
</g>
</g>
<!-- Node8 -->
<g id="Node000008" class="node">
<title>Node8</title>
<g id="a_Node000008"><a xlink:href="execmem_8c.html#aec0268ee3e815aad85f781db6ad81637" target="_top" xlink:title=" ">
<polygon fill="white" stroke="#666666" points="252.5,-96 172,-96 172,-76 252.5,-76 252.5,-96"/>
<text xml:space="preserve" text-anchor="middle" x="212.25" y="-82.5" font-family="Helvetica,sans-Serif" font-size="10.00">execmem_free</text>
</a>
</g>
</g>
<!-- Node7&#45;&gt;Node8 -->
<g id="edge7_Node000007_Node000008" class="edge">
<title>Node7&#45;&gt;Node8</title>
<g id="a_edge7_Node000007_Node000008"><a xlink:title=" ">
<path fill="none" stroke="#63b8ff" d="M325.67,-86C301.19,-86 274.26,-86 252.9,-86"/>
<polygon fill="#63b8ff" stroke="#63b8ff" points="325.57,-89.5 335.57,-86 325.57,-82.5 325.57,-89.5"/>
</a>
</g>
</g>
<!-- Node10 -->
<g id="Node000010" class="node">
<title>Node10</title>
<g id="a_Node000010"><a xlink:href="execmem_8c.html#a191b21b0012b2c0678ee13de6a622fb9" target="_top" xlink:title=" ">
<polygon fill="white" stroke="#666666" points="288.5,-58 136,-58 136,-38 288.5,-38 288.5,-58"/>
<text xml:space="preserve" text-anchor="middle" x="212.25" y="-44.5" font-family="Helvetica,sans-Serif" font-size="10.00">DECLARE_DELAYED_WORK</text>
</a>
</g>
</g>
<!-- Node9&#45;&gt;Node10 -->
<g id="edge9_Node000009_Node000010" class="edge">
<title>Node9&#45;&gt;Node10</title>
<g id="a_edge9_Node000009_Node000010"><a xlink:title=" ">
<path fill="none" stroke="#63b8ff" d="M312.55,-48C304.63,-48 296.59,-48 288.71,-48"/>
<polygon fill="#63b8ff" stroke="#63b8ff" points="312.55,-51.5 322.55,-48 312.55,-44.5 312.55,-51.5"/>
</a>
</g>
</g>
<!-- Node12 -->
<g id="Node000012" class="node">
<title>Node12</title>
<g id="a_Node000012"><a xlink:href="execmem_8c.html#a5acd37be2f260d565f4f83e4bae5982c" target="_top" xlink:title=" ">
<polygon fill="white" stroke="#666666" points="443.62,-20 342.88,-20 342.88,0 443.62,0 443.62,-20"/>
<text xml:space="preserve" text-anchor="middle" x="393.25" y="-6.5" font-family="Helvetica,sans-Serif" font-size="10.00">DECLARE_WORK</text>
</a>
</g>
</g>
<!-- Node11&#45;&gt;Node12 -->
<g id="edge11_Node000011_Node000012" class="edge">
<title>Node11&#45;&gt;Node12</title>
<g id="a_edge11_Node000011_Node000012"><a xlink:title=" ">
<path fill="none" stroke="#63b8ff" d="M490.42,-21.02C474.82,-19.23 458.57,-17.37 443.96,-15.69"/>
<polygon fill="#63b8ff" stroke="#63b8ff" points="489.81,-24.47 500.14,-22.13 490.6,-17.51 489.81,-24.47"/>
</a>
</g>
</g>
</g>
</svg>
