<?xml version="1.0" encoding="UTF-8" standalone="no"?>
<!DOCTYPE svg PUBLIC "-//W3C//DTD SVG 1.1//EN"
 "http://www.w3.org/Graphics/SVG/1.1/DTD/svg11.dtd">
<!-- Generated by graphviz version 15.1.0 (20260618.0150)
 -->
<!-- Title: EXPORT_SYMBOL Pages: 1 -->
<svg width="926pt" height="104pt"
 viewBox="0.00 0.00 926.00 104.00" xmlns="http://www.w3.org/2000/svg" xmlns:xlink="http://www.w3.org/1999/xlink">
<g id="graph0" class="graph" transform="scale(1 1) rotate(0) translate(4 100)">
<title>EXPORT_SYMBOL</title>
<!-- Node1 -->
<g id="Node000001" class="node">
<title>Node1</title>
<g id="a_Node000001"><a xlink:title=" ">
<polygon fill="#999999" stroke="#666666" points="103,-39 0,-39 0,-19 103,-19 103,-39"/>
<text xml:space="preserve" text-anchor="middle" x="51.5" y="-25.5" font-family="Helvetica,sans-Serif" font-size="10.00">EXPORT_SYMBOL</text>
</a>
</g>
</g>
<!-- Node2 -->
<g id="Node000002" class="node">
<title>Node2</title>
<g id="a_Node000002"><a xlink:href="genalloc_8c.html#a0e80b0d79e7be055aa7f52941388e71c" target="_top" xlink:title=" ">
<polygon fill="white" stroke="#666666" points="243.5,-39 139,-39 139,-19 243.5,-19 243.5,-39"/>
<text xml:space="preserve" text-anchor="middle" x="191.25" y="-25.5" font-family="Helvetica,sans-Serif" font-size="10.00">gen_pool_dma_alloc</text>
</a>
</g>
</g>
<!-- Node1&#45;&gt;Node2 -->
<g id="edge1_Node000001_Node000002" class="edge">
<title>Node1&#45;&gt;Node2</title>
<g id="a_edge1_Node000001_Node000002"><a xlink:title=" ">
<path fill="none" stroke="#63b8ff" d="M103.4,-29C111.22,-29 119.36,-29 127.4,-29"/>
<polygon fill="#63b8ff" stroke="#63b8ff" points="127.12,-32.5 137.12,-29 127.12,-25.5 127.12,-32.5"/>
</a>
</g>
</g>
<!-- Node3 -->
<g id="Node000003" class="node">
<title>Node3</title>
<g id="a_Node000003"><a xlink:href="genalloc_8c.html#a8dcfb3a3ff80f3b8a1a96ba03c2edfd7" target="_top" xlink:title=" ">
<polygon fill="white" stroke="#666666" points="407.25,-39 279.5,-39 279.5,-19 407.25,-19 407.25,-39"/>
<text xml:space="preserve" text-anchor="middle" x="343.38" y="-25.5" font-family="Helvetica,sans-Serif" font-size="10.00">gen_pool_dma_alloc_algo</text>
</a>
</g>
</g>
<!-- Node2&#45;&gt;Node3 -->
<g id="edge2_Node000002_Node000003" class="edge">
<title>Node2&#45;&gt;Node3</title>
<g id="a_edge2_Node000002_Node000003"><a xlink:title=" ">
<path fill="none" stroke="#63b8ff" d="M243.91,-29C251.64,-29 259.73,-29 267.82,-29"/>
<polygon fill="#63b8ff" stroke="#63b8ff" points="267.69,-32.5 277.69,-29 267.69,-25.5 267.69,-32.5"/>
</a>
</g>
</g>
<!-- Node4 -->
<g id="Node000004" class="node">
<title>Node4</title>
<g id="a_Node000004"><a xlink:href="genalloc_8h.html#a3ab7a8671a33ee60a3b3f65e97f1b586" target="_top" xlink:title=" ">
<polygon fill="white" stroke="#666666" points="551.88,-58 448.12,-58 448.12,-38 551.88,-38 551.88,-58"/>
<text xml:space="preserve" text-anchor="middle" x="500" y="-44.5" font-family="Helvetica,sans-Serif" font-size="10.00">gen_pool_alloc_algo</text>
</a>
</g>
</g>
<!-- Node3&#45;&gt;Node4 -->
<g id="edge3_Node000003_Node000004" class="edge">
<title>Node3&#45;&gt;Node4</title>
<g id="a_edge3_Node000003_Node000004"><a xlink:title=" ">
<path fill="none" stroke="#63b8ff" d="M407.71,-36.78C417.2,-37.95 426.98,-39.15 436.45,-40.31"/>
<polygon fill="#63b8ff" stroke="#63b8ff" points="435.95,-43.78 446.31,-41.52 436.81,-36.83 435.95,-43.78"/>
</a>
</g>
</g>
<!-- Node11 -->
<g id="Node000011" class="node">
<title>Node11</title>
<g id="a_Node000011"><a xlink:href="genalloc_8c.html#ae1e0cbb9c097e2231bdc2b6fb95b72f1" target="_top" xlink:title=" ">
<polygon fill="white" stroke="#666666" points="556.75,-20 443.25,-20 443.25,0 556.75,0 556.75,-20"/>
<text xml:space="preserve" text-anchor="middle" x="500" y="-6.5" font-family="Helvetica,sans-Serif" font-size="10.00">gen_pool_virt_to_phys</text>
</a>
</g>
</g>
<!-- Node3&#45;&gt;Node11 -->
<g id="edge10_Node000003_Node000011" class="edge">
<title>Node3&#45;&gt;Node11</title>
<g id="a_edge10_Node000003_Node000011"><a xlink:title=" ">
<path fill="none" stroke="#63b8ff" d="M407.71,-21.22C415.65,-20.24 423.79,-19.24 431.78,-18.26"/>
<polygon fill="#63b8ff" stroke="#63b8ff" points="431.95,-21.77 441.45,-17.07 431.09,-14.82 431.95,-21.77"/>
</a>
</g>
</g>
<!-- Node5 -->
<g id="Node000005" class="node">
<title>Node5</title>
<g id="a_Node000005"><a xlink:href="genalloc_8c.html#a82613a35becfc3fe664a8cc55b28d858" target="_top" xlink:title=" ">
<polygon fill="white" stroke="#666666" points="696.5,-64 592.75,-64 592.75,-32 696.5,-32 696.5,-64"/>
<text xml:space="preserve" text-anchor="start" x="600.75" y="-50.5" font-family="Helvetica,sans-Serif" font-size="10.00">gen_pool_alloc_algo</text>
<text xml:space="preserve" text-anchor="middle" x="644.62" y="-38.5" font-family="Helvetica,sans-Serif" font-size="10.00">_owner</text>
</a>
</g>
</g>
<!-- Node4&#45;&gt;Node5 -->
<g id="edge4_Node000004_Node000005" class="edge">
<title>Node4&#45;&gt;Node5</title>
<g id="a_edge4_Node000004_Node000005"><a xlink:title=" ">
<path fill="none" stroke="#63b8ff" d="M552.09,-48C561.51,-48 571.45,-48 581.16,-48"/>
<polygon fill="#63b8ff" stroke="#63b8ff" points="580.9,-51.5 590.9,-48 580.9,-44.5 580.9,-51.5"/>
</a>
</g>
</g>
<!-- Node6 -->
<g id="Node000006" class="node">
<title>Node6</title>
<g id="a_Node000006"><a xlink:href="genalloc_8c.html#a7980772fd92ca024173bc874aa1e57b2" target="_top" xlink:title=" ">
<polygon fill="white" stroke="#666666" points="813.75,-96 732.5,-96 732.5,-76 813.75,-76 813.75,-96"/>
<text xml:space="preserve" text-anchor="middle" x="773.12" y="-82.5" font-family="Helvetica,sans-Serif" font-size="10.00">bitmap_clear_ll</text>
</a>
</g>
</g>
<!-- Node5&#45;&gt;Node6 -->
<g id="edge5_Node000005_Node000006" class="edge">
<title>Node5&#45;&gt;Node6</title>
<g id="a_edge5_Node000005_Node000006"><a xlink:title=" ">
<path fill="none" stroke="#63b8ff" d="M696.71,-63.35C706.57,-66.31 716.84,-69.39 726.51,-72.3"/>
<polygon fill="#63b8ff" stroke="#63b8ff" points="725.49,-75.64 736.07,-75.17 727.5,-68.94 725.49,-75.64"/>
</a>
</g>
</g>
<!-- Node8 -->
<g id="Node000008" class="node">
<title>Node8</title>
<g id="a_Node000008"><a xlink:href="genalloc_8c.html#a03d24dd11c59191e1ed2d4971903591f" target="_top" xlink:title=" ">
<polygon fill="white" stroke="#666666" points="810,-58 736.25,-58 736.25,-38 810,-38 810,-58"/>
<text xml:space="preserve" text-anchor="middle" x="773.12" y="-44.5" font-family="Helvetica,sans-Serif" font-size="10.00">bitmap_set_ll</text>
</a>
</g>
</g>
<!-- Node5&#45;&gt;Node8 -->
<g id="edge7_Node000005_Node000008" class="edge">
<title>Node5&#45;&gt;Node8</title>
<g id="a_edge7_Node000005_Node000008"><a xlink:title=" ">
<path fill="none" stroke="#63b8ff" d="M696.71,-48C705.97,-48 715.59,-48 724.73,-48"/>
<polygon fill="#63b8ff" stroke="#63b8ff" points="724.49,-51.5 734.49,-48 724.49,-44.5 724.49,-51.5"/>
</a>
</g>
</g>
<!-- Node10 -->
<g id="Node000010" class="node">
<title>Node10</title>
<g id="a_Node000010"><a xlink:href="genalloc_8c.html#a825cdd577934de7258cbece402ea50d4" target="_top" xlink:title=" ">
<polygon fill="white" stroke="#666666" points="805.88,-20 740.38,-20 740.38,0 805.88,0 805.88,-20"/>
<text xml:space="preserve" text-anchor="middle" x="773.12" y="-6.5" font-family="Helvetica,sans-Serif" font-size="10.00">chunk_size</text>
</a>
</g>
</g>
<!-- Node5&#45;&gt;Node10 -->
<g id="edge9_Node000005_Node000010" class="edge">
<title>Node5&#45;&gt;Node10</title>
<g id="a_edge9_Node000005_Node000010"><a xlink:title=" ">
<path fill="none" stroke="#63b8ff" d="M696.71,-32.65C707.49,-29.42 718.76,-26.03 729.19,-22.9"/>
<polygon fill="#63b8ff" stroke="#63b8ff" points="730.12,-26.27 738.69,-20.04 728.1,-19.57 730.12,-26.27"/>
</a>
</g>
</g>
<!-- Node7 -->
<g id="Node000007" class="node">
<title>Node7</title>
<g id="a_Node000007"><a xlink:href="genalloc_8c.html#ae4aa9ea8cb8f6c4e170575625ed2a33d" target="_top" xlink:title=" ">
<polygon fill="white" stroke="#666666" points="917.5,-96 849.75,-96 849.75,-76 917.5,-76 917.5,-96"/>
<text xml:space="preserve" text-anchor="middle" x="883.62" y="-82.5" font-family="Helvetica,sans-Serif" font-size="10.00">clear_bits_ll</text>
</a>
</g>
</g>
<!-- Node6&#45;&gt;Node7 -->
<g id="edge6_Node000006_Node000007" class="edge">
<title>Node6&#45;&gt;Node7</title>
<g id="a_edge6_Node000006_Node000007"><a xlink:title=" ">
<path fill="none" stroke="#63b8ff" d="M814.22,-86C822.01,-86 830.21,-86 838.13,-86"/>
<polygon fill="#63b8ff" stroke="#63b8ff" points="837.93,-89.5 847.93,-86 837.93,-82.5 837.93,-89.5"/>
</a>
</g>
</g>
<!-- Node9 -->
<g id="Node000009" class="node">
<title>Node9</title>
<g id="a_Node000009"><a xlink:href="genalloc_8c.html#a372d29a21bda9d9068fc55ca0a103264" target="_top" xlink:title=" ">
<polygon fill="white" stroke="#666666" points="913.75,-58 853.5,-58 853.5,-38 913.75,-38 913.75,-58"/>
<text xml:space="preserve" text-anchor="middle" x="883.62" y="-44.5" font-family="Helvetica,sans-Serif" font-size="10.00">set_bits_ll</text>
</a>
</g>
</g>
<!-- Node8&#45;&gt;Node9 -->
<g id="edge8_Node000008_Node000009" class="edge">
<title>Node8&#45;&gt;Node9</title>
<g id="a_edge8_Node000008_Node000009"><a xlink:title=" ">
<path fill="none" stroke="#63b8ff" d="M810.25,-48C820.38,-48 831.45,-48 841.82,-48"/>
<polygon fill="#63b8ff" stroke="#63b8ff" points="841.64,-51.5 851.64,-48 841.64,-44.5 841.64,-51.5"/>
</a>
</g>
</g>
</g>
</svg>
