<?xml version="1.0" encoding="UTF-8" standalone="no"?>
<!DOCTYPE svg PUBLIC "-//W3C//DTD SVG 1.1//EN"
 "http://www.w3.org/Graphics/SVG/1.1/DTD/svg11.dtd">
<!-- Generated by graphviz version 15.1.0 (20260618.0150)
 -->
<!-- Title: memcg_events_index Pages: 1 -->
<svg width="1637pt" height="572pt"
 viewBox="0.00 0.00 1637.00 572.00" xmlns="http://www.w3.org/2000/svg" xmlns:xlink="http://www.w3.org/1999/xlink">
<g id="graph0" class="graph" transform="scale(1 1) rotate(0) translate(4 568)">
<title>memcg_events_index</title>
<!-- Node1 -->
<g id="Node000001" class="node">
<title>Node1</title>
<g id="a_Node000001"><a xlink:title=" ">
<polygon fill="#999999" stroke="#666666" points="1628.75,-165 1517.5,-165 1517.5,-145 1628.75,-145 1628.75,-165"/>
<text xml:space="preserve" text-anchor="middle" x="1573.12" y="-151.5" font-family="Helvetica,sans-Serif" font-size="10.00">memcg_events_index</text>
</a>
</g>
</g>
<!-- Node2 -->
<g id="Node000002" class="node">
<title>Node2</title>
<g id="a_Node000002"><a xlink:href="memcontrol_8c.html#aef3cd4917378d2e713e787562c6e546b" target="_top" xlink:title=" ">
<polygon fill="white" stroke="#666666" points="1477.38,-317 1365.38,-317 1365.38,-297 1477.38,-297 1477.38,-317"/>
<text xml:space="preserve" text-anchor="middle" x="1421.38" y="-303.5" font-family="Helvetica,sans-Serif" font-size="10.00">count_memcg_events</text>
</a>
</g>
</g>
<!-- Node1&#45;&gt;Node2 -->
<g id="edge1_Node000001_Node000002" class="edge">
<title>Node1&#45;&gt;Node2</title>
<g id="a_edge1_Node000001_Node000002"><a xlink:title=" ">
<path fill="none" stroke="#63b8ff" d="M1553.76,-173.65C1521.83,-206.06 1457.13,-271.72 1432.35,-296.88"/>
<polygon fill="#63b8ff" stroke="#63b8ff" points="1556.24,-176.11 1560.77,-166.53 1551.26,-171.19 1556.24,-176.11"/>
</a>
</g>
</g>
<!-- Node174 -->
<g id="Node000174" class="node">
<title>Node174</title>
<g id="a_Node000174"><a xlink:href="memcontrol_8c.html#a3122cb47e68ba6ff913daaa69f1e5373" target="_top" xlink:title=" ">
<polygon fill="white" stroke="#666666" points="1462.75,-184 1380,-184 1380,-164 1462.75,-164 1462.75,-184"/>
<text xml:space="preserve" text-anchor="middle" x="1421.38" y="-170.5" font-family="Helvetica,sans-Serif" font-size="10.00">memcg_events</text>
</a>
</g>
</g>
<!-- Node1&#45;&gt;Node174 -->
<g id="edge53_Node000001_Node000174" class="edge">
<title>Node1&#45;&gt;Node174</title>
<g id="a_edge53_Node000001_Node000174"><a xlink:title=" ">
<path fill="none" stroke="#63b8ff" d="M1506.16,-163.37C1491.55,-165.22 1476.47,-167.14 1463.21,-168.82"/>
<polygon fill="#63b8ff" stroke="#63b8ff" points="1506.23,-166.89 1515.71,-162.16 1505.35,-159.94 1506.23,-166.89"/>
</a>
</g>
</g>
<!-- Node185 -->
<g id="Node000185" class="node">
<title>Node185</title>
<g id="a_Node000185"><a xlink:href="memcontrol_8c.html#aa2ce290f7a3328b5994f4e335e6fc85f" target="_top" xlink:title=" ">
<polygon fill="white" stroke="#666666" points="1475.5,-146 1367.25,-146 1367.25,-126 1475.5,-126 1475.5,-146"/>
<text xml:space="preserve" text-anchor="middle" x="1421.38" y="-132.5" font-family="Helvetica,sans-Serif" font-size="10.00">memcg_events_local</text>
</a>
</g>
</g>
<!-- Node1&#45;&gt;Node185 -->
<g id="edge59_Node000001_Node000185" class="edge">
<title>Node1&#45;&gt;Node185</title>
<g id="a_edge59_Node000001_Node000185"><a xlink:title=" ">
<path fill="none" stroke="#63b8ff" d="M1505.95,-146.6C1495.86,-145.32 1485.55,-144.02 1475.78,-142.78"/>
<polygon fill="#63b8ff" stroke="#63b8ff" points="1505.35,-150.06 1515.71,-147.84 1506.23,-143.11 1505.35,-150.06"/>
</a>
</g>
</g>
<!-- Node186 -->
<g id="Node000186" class="node">
<title>Node186</title>
<g id="a_Node000186"><a xlink:href="memcontrol_8c.html#ad61711bc2b4428e5a63bebb75529e212" target="_top" xlink:title=" ">
<polygon fill="white" stroke="#666666" points="1481.5,-108 1361.25,-108 1361.25,-76 1481.5,-76 1481.5,-108"/>
<text xml:space="preserve" text-anchor="start" x="1369.25" y="-94.5" font-family="Helvetica,sans-Serif" font-size="10.00">memcg_vm_event_item</text>
<text xml:space="preserve" text-anchor="middle" x="1421.38" y="-82.5" font-family="Helvetica,sans-Serif" font-size="10.00">_valid</text>
</a>
</g>
</g>
<!-- Node1&#45;&gt;Node186 -->
<g id="edge60_Node000001_Node000186" class="edge">
<title>Node1&#45;&gt;Node186</title>
<g id="a_edge60_Node000001_Node000186"><a xlink:title=" ">
<path fill="none" stroke="#63b8ff" d="M1536.89,-140.18C1514.27,-130.66 1484.85,-118.28 1461.5,-108.46"/>
<polygon fill="#63b8ff" stroke="#63b8ff" points="1535.43,-143.36 1546,-144.01 1538.14,-136.91 1535.43,-143.36"/>
</a>
</g>
</g>
<!-- Node3 -->
<g id="Node000003" class="node">
<title>Node3</title>
<g id="a_Node000003"><a xlink:href="memcontrol_8h.html#a210609b17880b053a8759c666aac761d" target="_top" xlink:title=" ">
<polygon fill="white" stroke="#666666" points="1325.25,-393 1191.5,-393 1191.5,-373 1325.25,-373 1325.25,-393"/>
<text xml:space="preserve" text-anchor="middle" x="1258.38" y="-379.5" font-family="Helvetica,sans-Serif" font-size="10.00">count_memcg_events_mm</text>
</a>
</g>
</g>
<!-- Node2&#45;&gt;Node3 -->
<g id="edge2_Node000002_Node000003" class="edge">
<title>Node2&#45;&gt;Node3</title>
<g id="a_edge2_Node000002_Node000003"><a xlink:title=" ">
<path fill="none" stroke="#63b8ff" d="M1388.25,-322.17C1356.58,-337.12 1309.03,-359.56 1281.42,-372.6"/>
<polygon fill="#63b8ff" stroke="#63b8ff" points="1389.41,-325.49 1396.96,-318.05 1386.42,-319.16 1389.41,-325.49"/>
</a>
</g>
</g>
<!-- Node5 -->
<g id="Node000005" class="node">
<title>Node5</title>
<g id="a_Node000005"><a xlink:href="memcontrol_8h.html#aa3589405cc93030d618afd4133c37b80" target="_top" xlink:title=" ">
<polygon fill="white" stroke="#666666" points="991,-526 855.75,-526 855.75,-506 991,-506 991,-526"/>
<text xml:space="preserve" text-anchor="middle" x="923.38" y="-512.5" font-family="Helvetica,sans-Serif" font-size="10.00">count_memcg_folio_events</text>
</a>
</g>
</g>
<!-- Node2&#45;&gt;Node5 -->
<g id="edge4_Node000002_Node000005" class="edge">
<title>Node2&#45;&gt;Node5</title>
<g id="a_edge4_Node000002_Node000005"><a xlink:title=" ">
<path fill="none" stroke="#63b8ff" d="M1416.48,-328.42C1407.96,-368.45 1383.52,-454 1325.25,-492 1214.29,-564.36 1047.22,-542.53 968.45,-526.46"/>
<polygon fill="#63b8ff" stroke="#63b8ff" points="1419.87,-329.32 1418.38,-318.83 1413.01,-327.96 1419.87,-329.32"/>
</a>
</g>
</g>
<!-- Node19 -->
<g id="Node000019" class="node">
<title>Node19</title>
<g id="a_Node000019"><a xlink:href="vmscan_8c.html#ac9184aee3af25ca80fe304a3f080440d" target="_top" xlink:title=" ">
<polygon fill="white" stroke="#666666" points="655.62,-488 556.38,-488 556.38,-468 655.62,-468 655.62,-488"/>
<text xml:space="preserve" text-anchor="middle" x="606" y="-474.5" font-family="Helvetica,sans-Serif" font-size="10.00">shrink_inactive_list</text>
</a>
</g>
</g>
<!-- Node2&#45;&gt;Node19 -->
<g id="edge52_Node000002_Node000019" class="edge">
<title>Node2&#45;&gt;Node19</title>
<g id="a_edge52_Node000002_Node000019"><a xlink:title=" ">
<path fill="none" stroke="#63b8ff" d="M1411.2,-327.56C1397.13,-356.53 1367.37,-408.77 1325.25,-435 1235.87,-490.68 1197.55,-478 1092.25,-478 1092.25,-478 1092.25,-478 922.38,-478 828.06,-478 717.89,-478 655.89,-478"/>
<polygon fill="#63b8ff" stroke="#63b8ff" points="1414.26,-329.28 1415.32,-318.74 1407.92,-326.31 1414.26,-329.28"/>
</a>
</g>
</g>
<!-- Node148 -->
<g id="Node000148" class="node">
<title>Node148</title>
<g id="a_Node000148"><a xlink:href="memcontrol_8h.html#afe109eef0ad95acdc3cc3443617f4318" target="_top" xlink:title=" ">
<polygon fill="white" stroke="#666666" points="1309.88,-260 1206.88,-260 1206.88,-240 1309.88,-240 1309.88,-260"/>
<text xml:space="preserve" text-anchor="middle" x="1258.38" y="-246.5" font-family="Helvetica,sans-Serif" font-size="10.00">count_objcg_events</text>
</a>
</g>
</g>
<!-- Node2&#45;&gt;Node148 -->
<g id="edge16_Node000002_Node000148" class="edge">
<title>Node2&#45;&gt;Node148</title>
<g id="a_edge16_Node000002_Node000148"><a xlink:title=" ">
<path fill="none" stroke="#63b8ff" d="M1385.85,-292.25C1367.93,-284.84 1345.59,-275.98 1325.25,-269 1316.47,-265.99 1306.92,-263.05 1297.89,-260.41"/>
<polygon fill="#63b8ff" stroke="#63b8ff" points="1384.41,-295.44 1394.99,-296.06 1387.11,-288.98 1384.41,-295.44"/>
</a>
</g>
</g>
<!-- Node149 -->
<g id="Node000149" class="node">
<title>Node149</title>
<g id="a_Node000149"><a xlink:href="swap_8c.html#a7369aece80e793901d5caf51da13728e" target="_top" xlink:title=" ">
<polygon fill="white" stroke="#666666" points="1291.5,-146 1225.25,-146 1225.25,-126 1291.5,-126 1291.5,-146"/>
<text xml:space="preserve" text-anchor="middle" x="1258.38" y="-132.5" font-family="Helvetica,sans-Serif" font-size="10.00">lru_activate</text>
</a>
</g>
</g>
<!-- Node2&#45;&gt;Node149 -->
<g id="edge17_Node000002_Node000149" class="edge">
<title>Node2&#45;&gt;Node149</title>
<g id="a_edge17_Node000002_Node000149"><a xlink:title=" ">
<path fill="none" stroke="#63b8ff" d="M1405.98,-287.89C1388.06,-264.57 1356.07,-224.38 1325.25,-193 1308.08,-175.52 1286.26,-157.34 1272.55,-146.34"/>
<polygon fill="#63b8ff" stroke="#63b8ff" points="1402.98,-289.74 1411.83,-295.57 1408.55,-285.5 1402.98,-289.74"/>
</a>
</g>
</g>
<!-- Node163 -->
<g id="Node000163" class="node">
<title>Node163</title>
<g id="a_Node000163"><a xlink:href="vmscan_8c.html#ae9df8e0bc42ba3f7141ac6d0d69bf4ad" target="_top" xlink:title=" ">
<polygon fill="white" stroke="#666666" points="651.88,-450 560.12,-450 560.12,-430 651.88,-430 651.88,-450"/>
<text xml:space="preserve" text-anchor="middle" x="606" y="-436.5" font-family="Helvetica,sans-Serif" font-size="10.00">shrink_active_list</text>
</a>
</g>
</g>
<!-- Node2&#45;&gt;Node163 -->
<g id="edge51_Node000002_Node000163" class="edge">
<title>Node2&#45;&gt;Node163</title>
<g id="a_edge51_Node000002_Node000163"><a xlink:title=" ">
<path fill="none" stroke="#63b8ff" d="M1406.82,-326.53C1390.3,-348.7 1360.2,-384.1 1325.25,-402 1231.86,-449.82 1197.17,-440 1092.25,-440 1092.25,-440 1092.25,-440 922.38,-440 826.15,-440 713.4,-440 652.18,-440"/>
<polygon fill="#63b8ff" stroke="#63b8ff" points="1409.53,-328.77 1412.54,-318.61 1403.85,-324.67 1409.53,-328.77"/>
</a>
</g>
</g>
<!-- Node168 -->
<g id="Node000168" class="node">
<title>Node168</title>
<g id="a_Node000168"><a xlink:href="swap_8c.html#a0c4804e592f8b9c2091ebe70425ea94a" target="_top" xlink:title=" ">
<polygon fill="white" stroke="#666666" points="1296.75,-222 1220,-222 1220,-202 1296.75,-202 1296.75,-222"/>
<text xml:space="preserve" text-anchor="middle" x="1258.38" y="-208.5" font-family="Helvetica,sans-Serif" font-size="10.00">lru_deactivate</text>
</a>
</g>
</g>
<!-- Node2&#45;&gt;Node168 -->
<g id="edge42_Node000002_Node000168" class="edge">
<title>Node2&#45;&gt;Node168</title>
<g id="a_edge42_Node000002_Node000168"><a xlink:title=" ">
<path fill="none" stroke="#63b8ff" d="M1402.31,-288.9C1384.24,-271.74 1354.94,-246.36 1325.25,-231 1316.48,-226.46 1306.47,-222.87 1296.94,-220.08"/>
<polygon fill="#63b8ff" stroke="#63b8ff" points="1399.53,-291.08 1409.15,-295.53 1404.41,-286.06 1399.53,-291.08"/>
</a>
</g>
</g>
<!-- Node170 -->
<g id="Node000170" class="node">
<title>Node170</title>
<g id="a_Node000170"><a xlink:href="swap_8c.html#a39f8aeef59a546188e37aee6e1faa9a2" target="_top" xlink:title=" ">
<polygon fill="white" stroke="#666666" points="1305.75,-336 1211,-336 1211,-316 1305.75,-316 1305.75,-336"/>
<text xml:space="preserve" text-anchor="middle" x="1258.38" y="-322.5" font-family="Helvetica,sans-Serif" font-size="10.00">lru_deactivate_file</text>
</a>
</g>
</g>
<!-- Node2&#45;&gt;Node170 -->
<g id="edge45_Node000002_Node000170" class="edge">
<title>Node2&#45;&gt;Node170</title>
<g id="a_edge45_Node000002_Node000170"><a xlink:title=" ">
<path fill="none" stroke="#63b8ff" d="M1353.98,-314.84C1337.89,-316.73 1321.01,-318.73 1306.05,-320.49"/>
<polygon fill="#63b8ff" stroke="#63b8ff" points="1353.94,-318.36 1363.46,-313.72 1353.12,-311.41 1353.94,-318.36"/>
</a>
</g>
</g>
<!-- Node172 -->
<g id="Node000172" class="node">
<title>Node172</title>
<g id="a_Node000172"><a xlink:href="swap_8c.html#a669e21ea6f543836bb26517e3b2721c3" target="_top" xlink:title=" ">
<polygon fill="white" stroke="#666666" points="1291.5,-298 1225.25,-298 1225.25,-278 1291.5,-278 1291.5,-298"/>
<text xml:space="preserve" text-anchor="middle" x="1258.38" y="-284.5" font-family="Helvetica,sans-Serif" font-size="10.00">lru_lazyfree</text>
</a>
</g>
</g>
<!-- Node2&#45;&gt;Node172 -->
<g id="edge48_Node000002_Node000172" class="edge">
<title>Node2&#45;&gt;Node172</title>
<g id="a_edge48_Node000002_Node000172"><a xlink:title=" ">
<path fill="none" stroke="#63b8ff" d="M1353.63,-299.12C1332.28,-296.6 1309.61,-293.93 1291.85,-291.83"/>
<polygon fill="#63b8ff" stroke="#63b8ff" points="1353.12,-302.59 1363.46,-300.28 1353.94,-295.64 1353.12,-302.59"/>
</a>
</g>
</g>
<!-- Node4 -->
<g id="Node000004" class="node">
<title>Node4</title>
<g id="a_Node000004"><a xlink:href="memcontrol_8h.html#a28b02f721002af34a2c5c0865243bcae" target="_top" xlink:title=" ">
<polygon fill="white" stroke="#666666" points="1155.5,-412 1027,-412 1027,-392 1155.5,-392 1155.5,-412"/>
<text xml:space="preserve" text-anchor="middle" x="1091.25" y="-398.5" font-family="Helvetica,sans-Serif" font-size="10.00">count_memcg_event_mm</text>
</a>
</g>
</g>
<!-- Node3&#45;&gt;Node4 -->
<g id="edge3_Node000003_Node000004" class="edge">
<title>Node3&#45;&gt;Node4</title>
<g id="a_edge3_Node000003_Node000004"><a xlink:title=" ">
<path fill="none" stroke="#63b8ff" d="M1179.85,-391.92C1171.79,-392.85 1163.67,-393.78 1155.79,-394.69"/>
<polygon fill="#63b8ff" stroke="#63b8ff" points="1180.13,-395.41 1189.66,-390.79 1179.33,-388.46 1180.13,-395.41"/>
</a>
</g>
</g>
<!-- Node6 -->
<g id="Node000006" class="node">
<title>Node6</title>
<g id="a_Node000006"><a xlink:href="vmscan_8c.html#ac79371f76eed8866c90a9ce2825e4b7b" target="_top" xlink:title=" ">
<polygon fill="white" stroke="#666666" points="801,-526 717.5,-526 717.5,-506 801,-506 801,-526"/>
<text xml:space="preserve" text-anchor="middle" x="759.25" y="-512.5" font-family="Helvetica,sans-Serif" font-size="10.00">shrink_folio_list</text>
</a>
</g>
</g>
<!-- Node5&#45;&gt;Node6 -->
<g id="edge5_Node000005_Node000006" class="edge">
<title>Node5&#45;&gt;Node6</title>
<g id="a_edge5_Node000005_Node000006"><a xlink:title=" ">
<path fill="none" stroke="#63b8ff" d="M844.24,-516C829.45,-516 814.53,-516 801.45,-516"/>
<polygon fill="#63b8ff" stroke="#63b8ff" points="843.98,-519.5 853.98,-516 843.98,-512.5 843.98,-519.5"/>
</a>
</g>
</g>
<!-- Node7 -->
<g id="Node000007" class="node">
<title>Node7</title>
<g id="a_Node000007"><a xlink:href="vmscan_8c.html#a6cb355d2fe263866340c6b156af0035a" target="_top" xlink:title=" ">
<polygon fill="white" stroke="#666666" points="378,-462 270.5,-462 270.5,-430 378,-430 378,-462"/>
<text xml:space="preserve" text-anchor="start" x="278.5" y="-448.5" font-family="Helvetica,sans-Serif" font-size="10.00">reclaim_clean_pages</text>
<text xml:space="preserve" text-anchor="middle" x="324.25" y="-436.5" font-family="Helvetica,sans-Serif" font-size="10.00">_from_list</text>
</a>
</g>
</g>
<!-- Node6&#45;&gt;Node7 -->
<g id="edge6_Node000006_Node000007" class="edge">
<title>Node6&#45;&gt;Node7</title>
<g id="a_edge6_Node000006_Node000007"><a xlink:title=" ">
<path fill="none" stroke="#63b8ff" d="M705.62,-522.06C636.51,-528.03 512.41,-531.85 414,-497 395.4,-490.41 394.99,-481.05 378,-471 372.94,-468.01 367.47,-465.09 362.02,-462.36"/>
<polygon fill="#63b8ff" stroke="#63b8ff" points="705.91,-525.55 715.54,-521.15 705.27,-518.58 705.91,-525.55"/>
</a>
</g>
</g>
<!-- Node17 -->
<g id="Node000017" class="node">
<title>Node17</title>
<g id="a_Node000017"><a xlink:href="vmscan_8c.html#a00d9fe835a781dc743a411c388a02d89" target="_top" xlink:title=" ">
<polygon fill="white" stroke="#666666" points="650.38,-564 561.62,-564 561.62,-544 650.38,-544 650.38,-564"/>
<text xml:space="preserve" text-anchor="middle" x="606" y="-550.5" font-family="Helvetica,sans-Serif" font-size="10.00">reclaim_folio_list</text>
</a>
</g>
</g>
<!-- Node6&#45;&gt;Node17 -->
<g id="edge8_Node000006_Node000017" class="edge">
<title>Node6&#45;&gt;Node17</title>
<g id="a_edge8_Node000006_Node000017"><a xlink:title=" ">
<path fill="none" stroke="#63b8ff" d="M706.26,-529.06C687.48,-533.78 666.54,-539.04 648.75,-543.51"/>
<polygon fill="#63b8ff" stroke="#63b8ff" points="707.01,-532.48 715.85,-526.65 705.3,-525.69 707.01,-532.48"/>
</a>
</g>
</g>
<!-- Node6&#45;&gt;Node19 -->
<g id="edge10_Node000006_Node000019" class="edge">
<title>Node6&#45;&gt;Node19</title>
<g id="a_edge10_Node000006_Node000019"><a xlink:title=" ">
<path fill="none" stroke="#63b8ff" d="M706.26,-502.94C687.48,-498.22 666.54,-492.96 648.75,-488.49"/>
<polygon fill="#63b8ff" stroke="#63b8ff" points="705.3,-506.31 715.85,-505.35 707.01,-499.52 705.3,-506.31"/>
</a>
</g>
</g>
<!-- Node8 -->
<g id="Node000008" class="node">
<title>Node8</title>
<g id="a_Node000008"><a xlink:href="page__alloc_8c.html#a06d57f406c216eb339460574f2c0d56c" target="_top" xlink:title=" ">
<polygon fill="#fff0f0" stroke="red" points="227.38,-462 111.62,-462 111.62,-430 227.38,-430 227.38,-462"/>
<text xml:space="preserve" text-anchor="start" x="119.62" y="-448.5" font-family="Helvetica,sans-Serif" font-size="10.00">__alloc_contig_migrate</text>
<text xml:space="preserve" text-anchor="middle" x="169.5" y="-436.5" font-family="Helvetica,sans-Serif" font-size="10.00">_range</text>
</a>
</g>
</g>
<!-- Node7&#45;&gt;Node8 -->
<g id="edge7_Node000007_Node000008" class="edge">
<title>Node7&#45;&gt;Node8</title>
<g id="a_edge7_Node000007_Node000008"><a xlink:title=" ">
<path fill="none" stroke="#63b8ff" d="M258.81,-446C248.52,-446 237.94,-446 227.83,-446"/>
<polygon fill="#63b8ff" stroke="#63b8ff" points="258.74,-449.5 268.74,-446 258.74,-442.5 258.74,-449.5"/>
</a>
</g>
</g>
<!-- Node18 -->
<g id="Node000018" class="node">
<title>Node18</title>
<g id="a_Node000018"><a xlink:href="vmscan_8c.html#ace9cc254581b5feffe004b65024311db" target="_top" xlink:title=" ">
<polygon fill="white" stroke="#666666" points="503.12,-564 424.12,-564 424.12,-544 503.12,-544 503.12,-564"/>
<text xml:space="preserve" text-anchor="middle" x="463.62" y="-550.5" font-family="Helvetica,sans-Serif" font-size="10.00">reclaim_pages</text>
</a>
</g>
</g>
<!-- Node17&#45;&gt;Node18 -->
<g id="edge9_Node000017_Node000018" class="edge">
<title>Node17&#45;&gt;Node18</title>
<g id="a_edge9_Node000017_Node000018"><a xlink:title=" ">
<path fill="none" stroke="#63b8ff" d="M550.22,-554C534.61,-554 517.94,-554 503.49,-554"/>
<polygon fill="#63b8ff" stroke="#63b8ff" points="549.84,-557.5 559.84,-554 549.84,-550.5 549.84,-557.5"/>
</a>
</g>
</g>
<!-- Node20 -->
<g id="Node000020" class="node">
<title>Node20</title>
<g id="a_Node000020"><a xlink:href="vmscan_8c.html#abc2a627442742b76c6d6dd5bc813d65c" target="_top" xlink:title=" ">
<polygon fill="white" stroke="#666666" points="493.75,-450 433.5,-450 433.5,-430 493.75,-430 493.75,-450"/>
<text xml:space="preserve" text-anchor="middle" x="463.62" y="-436.5" font-family="Helvetica,sans-Serif" font-size="10.00">shrink_list</text>
</a>
</g>
</g>
<!-- Node19&#45;&gt;Node20 -->
<g id="edge11_Node000019_Node000020" class="edge">
<title>Node19&#45;&gt;Node20</title>
<g id="a_edge11_Node000019_Node000020"><a xlink:title=" ">
<path fill="none" stroke="#63b8ff" d="M555.18,-464.51C534.66,-458.96 511.59,-452.71 493.88,-447.92"/>
<polygon fill="#63b8ff" stroke="#63b8ff" points="554.24,-467.89 564.81,-467.12 556.07,-461.13 554.24,-467.89"/>
</a>
</g>
</g>
<!-- Node21 -->
<g id="Node000021" class="node">
<title>Node21</title>
<g id="a_Node000021"><a xlink:href="vmscan_8c.html#aa642e63d2e4f713deee091148ff22ecc" target="_top" xlink:title=" ">
<polygon fill="white" stroke="#666666" points="361.12,-412 287.38,-412 287.38,-392 361.12,-392 361.12,-412"/>
<text xml:space="preserve" text-anchor="middle" x="324.25" y="-398.5" font-family="Helvetica,sans-Serif" font-size="10.00">shrink_lruvec</text>
</a>
</g>
</g>
<!-- Node20&#45;&gt;Node21 -->
<g id="edge12_Node000020_Node000021" class="edge">
<title>Node20&#45;&gt;Node21</title>
<g id="a_edge12_Node000020_Node000021"><a xlink:title=" ">
<path fill="none" stroke="#63b8ff" d="M422.3,-428.85C403.06,-423.52 380.21,-417.2 361.52,-412.03"/>
<polygon fill="#63b8ff" stroke="#63b8ff" points="421.12,-432.15 431.7,-431.44 422.99,-425.41 421.12,-432.15"/>
</a>
</g>
</g>
<!-- Node22 -->
<g id="Node000022" class="node">
<title>Node22</title>
<g id="a_Node000022"><a xlink:href="vmscan_8c.html#ab72961141997a42e17931e07bc7d06f3" target="_top" xlink:title=" ">
<polygon fill="white" stroke="#666666" points="234.5,-374 104.5,-374 104.5,-354 234.5,-354 234.5,-374"/>
<text xml:space="preserve" text-anchor="middle" x="169.5" y="-360.5" font-family="Helvetica,sans-Serif" font-size="10.00">mem_cgroup_shrink_node</text>
</a>
</g>
</g>
<!-- Node21&#45;&gt;Node22 -->
<g id="edge13_Node000021_Node000022" class="edge">
<title>Node21&#45;&gt;Node22</title>
<g id="a_edge13_Node000021_Node000022"><a xlink:title=" ">
<path fill="none" stroke="#63b8ff" d="M275.88,-390.22C255.67,-385.19 232.27,-379.37 212.66,-374.49"/>
<polygon fill="#63b8ff" stroke="#63b8ff" points="275.03,-393.61 285.58,-392.63 276.72,-386.82 275.03,-393.61"/>
</a>
</g>
</g>
<!-- Node23 -->
<g id="Node000023" class="node">
<title>Node23</title>
<g id="a_Node000023"><a xlink:href="vmscan_8c.html#a5d57b83ea48d88e9f7c59bf37abac211" target="_top" xlink:title=" ">
<polygon fill="white" stroke="#666666" points="225.12,-412 113.88,-412 113.88,-392 225.12,-392 225.12,-412"/>
<text xml:space="preserve" text-anchor="middle" x="169.5" y="-398.5" font-family="Helvetica,sans-Serif" font-size="10.00">shrink_node_memcgs</text>
</a>
</g>
</g>
<!-- Node21&#45;&gt;Node23 -->
<g id="edge14_Node000021_Node000023" class="edge">
<title>Node21&#45;&gt;Node23</title>
<g id="a_edge14_Node000021_Node000023"><a xlink:title=" ">
<path fill="none" stroke="#63b8ff" d="M275.85,-402C259.93,-402 242.03,-402 225.57,-402"/>
<polygon fill="#63b8ff" stroke="#63b8ff" points="275.54,-405.5 285.54,-402 275.54,-398.5 275.54,-405.5"/>
</a>
</g>
</g>
<!-- Node24 -->
<g id="Node000024" class="node">
<title>Node24</title>
<g id="a_Node000024"><a xlink:href="vmscan_8c.html#a713b665acc81217b480af61efd0d86fa" target="_top" xlink:title=" ">
<polygon fill="#fff0f0" stroke="red" points="68.5,-412 0,-412 0,-392 68.5,-392 68.5,-412"/>
<text xml:space="preserve" text-anchor="middle" x="34.25" y="-398.5" font-family="Helvetica,sans-Serif" font-size="10.00">shrink_node</text>
</a>
</g>
</g>
<!-- Node23&#45;&gt;Node24 -->
<g id="edge15_Node000023_Node000024" class="edge">
<title>Node23&#45;&gt;Node24</title>
<g id="a_edge15_Node000023_Node000024"><a xlink:title=" ">
<path fill="none" stroke="#63b8ff" d="M102.03,-402C90.47,-402 78.91,-402 68.73,-402"/>
<polygon fill="#63b8ff" stroke="#63b8ff" points="102.02,-405.5 112.02,-402 102.02,-398.5 102.02,-405.5"/>
</a>
</g>
</g>
<!-- Node150 -->
<g id="Node000150" class="node">
<title>Node150</title>
<g id="a_Node000150"><a xlink:href="swap_8c.html#a2ade93c7e27c2623c0dd9f0849a1e7d6" target="_top" xlink:title=" ">
<polygon fill="white" stroke="#666666" points="1128.12,-108 1054.38,-108 1054.38,-88 1128.12,-88 1128.12,-108"/>
<text xml:space="preserve" text-anchor="middle" x="1091.25" y="-94.5" font-family="Helvetica,sans-Serif" font-size="10.00">folio_activate</text>
</a>
</g>
</g>
<!-- Node149&#45;&gt;Node150 -->
<g id="edge18_Node000149_Node000150" class="edge">
<title>Node149&#45;&gt;Node150</title>
<g id="a_edge18_Node000149_Node000150"><a xlink:title=" ">
<path fill="none" stroke="#63b8ff" d="M1213.83,-125.98C1187.26,-119.86 1153.67,-112.13 1128.54,-106.35"/>
<polygon fill="#63b8ff" stroke="#63b8ff" points="1212.75,-129.32 1223.28,-128.15 1214.32,-122.5 1212.75,-129.32"/>
</a>
</g>
</g>
<!-- Node153 -->
<g id="Node000153" class="node">
<title>Node153</title>
<g id="a_Node000153"><a xlink:href="swap_8c.html#af35150de9a4beb63787e476dc012ab16" target="_top" xlink:title=" ">
<polygon fill="white" stroke="#666666" points="1141.25,-146 1041.25,-146 1041.25,-126 1141.25,-126 1141.25,-146"/>
<text xml:space="preserve" text-anchor="middle" x="1091.25" y="-132.5" font-family="Helvetica,sans-Serif" font-size="10.00">folio_activate_drain</text>
</a>
</g>
</g>
<!-- Node149&#45;&gt;Node153 -->
<g id="edge21_Node000149_Node000153" class="edge">
<title>Node149&#45;&gt;Node153</title>
<g id="a_edge21_Node000149_Node000153"><a xlink:title=" ">
<path fill="none" stroke="#63b8ff" d="M1213.37,-136C1191.3,-136 1164.5,-136 1141.73,-136"/>
<polygon fill="#63b8ff" stroke="#63b8ff" points="1213.24,-139.5 1223.24,-136 1213.24,-132.5 1213.24,-139.5"/>
</a>
</g>
</g>
<!-- Node151 -->
<g id="Node000151" class="node">
<title>Node151</title>
<g id="a_Node000151"><a xlink:href="swap_8c.html#a64ea14cffb102246a5569d2f5c9f2a3d" target="_top" xlink:title=" ">
<polygon fill="white" stroke="#666666" points="977.5,-108 869.25,-108 869.25,-88 977.5,-88 977.5,-108"/>
<text xml:space="preserve" text-anchor="middle" x="923.38" y="-94.5" font-family="Helvetica,sans-Serif" font-size="10.00">folio_mark_accessed</text>
</a>
</g>
</g>
<!-- Node150&#45;&gt;Node151 -->
<g id="edge19_Node000150_Node000151" class="edge">
<title>Node150&#45;&gt;Node151</title>
<g id="a_edge19_Node000150_Node000151"><a xlink:title=" ">
<path fill="none" stroke="#63b8ff" d="M1042.79,-98C1022.54,-98 998.82,-98 977.95,-98"/>
<polygon fill="#63b8ff" stroke="#63b8ff" points="1042.74,-101.5 1052.74,-98 1042.74,-94.5 1042.74,-101.5"/>
</a>
</g>
</g>
<!-- Node152 -->
<g id="Node000152" class="node">
<title>Node152</title>
<g id="a_Node000152"><a xlink:href="swap_8c.html#a5df2f96684931eb0f2c26cbd66ddd80a" target="_top" xlink:title=" ">
<polygon fill="white" stroke="#666666" points="810.75,-108 707.75,-108 707.75,-88 810.75,-88 810.75,-108"/>
<text xml:space="preserve" text-anchor="middle" x="759.25" y="-94.5" font-family="Helvetica,sans-Serif" font-size="10.00">EXPORT_SYMBOL</text>
</a>
</g>
</g>
<!-- Node151&#45;&gt;Node152 -->
<g id="edge20_Node000151_Node000152" class="edge">
<title>Node151&#45;&gt;Node152</title>
<g id="a_edge20_Node000151_Node000152"><a xlink:title=" ">
<path fill="none" stroke="#63b8ff" d="M857.71,-98C842.16,-98 825.78,-98 810.98,-98"/>
<polygon fill="#63b8ff" stroke="#63b8ff" points="857.33,-101.5 867.33,-98 857.33,-94.5 857.33,-101.5"/>
</a>
</g>
</g>
<!-- Node154 -->
<g id="Node000154" class="node">
<title>Node154</title>
<g id="a_Node000154"><a xlink:href="swap_8c.html#af45ab7c311a3a462f207ff31cf7d4a69" target="_top" xlink:title=" ">
<polygon fill="white" stroke="#666666" points="970.75,-260 876,-260 876,-240 970.75,-240 970.75,-260"/>
<text xml:space="preserve" text-anchor="middle" x="923.38" y="-246.5" font-family="Helvetica,sans-Serif" font-size="10.00">lru_add_drain_cpu</text>
</a>
</g>
</g>
<!-- Node153&#45;&gt;Node154 -->
<g id="edge22_Node000153_Node000154" class="edge">
<title>Node153&#45;&gt;Node154</title>
<g id="a_edge22_Node000153_Node000154"><a xlink:title=" ">
<path fill="none" stroke="#63b8ff" d="M1045.42,-150.71C1039.06,-153.45 1032.74,-156.55 1027,-160 988.41,-183.2 950.57,-221.54 933.63,-239.76"/>
<polygon fill="#63b8ff" stroke="#63b8ff" points="1046.67,-153.97 1054.65,-147 1044.07,-147.48 1046.67,-153.97"/>
</a>
</g>
</g>
<!-- Node155 -->
<g id="Node000155" class="node">
<title>Node155</title>
<g id="a_Node000155"><a xlink:href="swap_8c.html#a53ca0a3d9e61a4d61d14a8e5529a0aa1" target="_top" xlink:title=" ">
<polygon fill="white" stroke="#666666" points="811.88,-310 706.62,-310 706.62,-278 811.88,-278 811.88,-310"/>
<text xml:space="preserve" text-anchor="start" x="714.62" y="-296.5" font-family="Helvetica,sans-Serif" font-size="10.00">lru_add_and_bh_lrus</text>
<text xml:space="preserve" text-anchor="middle" x="759.25" y="-284.5" font-family="Helvetica,sans-Serif" font-size="10.00">_drain</text>
</a>
</g>
</g>
<!-- Node154&#45;&gt;Node155 -->
<g id="edge23_Node000154_Node000155" class="edge">
<title>Node154&#45;&gt;Node155</title>
<g id="a_edge23_Node000154_Node000155"><a xlink:title=" ">
<path fill="none" stroke="#63b8ff" d="M872.99,-263.4C853.75,-268.63 831.68,-274.61 812.2,-279.9"/>
<polygon fill="#63b8ff" stroke="#63b8ff" points="873.76,-266.82 882.49,-260.82 871.93,-260.07 873.76,-266.82"/>
</a>
</g>
</g>
<!-- Node160 -->
<g id="Node000160" class="node">
<title>Node160</title>
<g id="a_Node000160"><a xlink:href="swap_8c.html#ab1c0247474c324ec2b4a26d5c3e57955" target="_top" xlink:title=" ">
<polygon fill="white" stroke="#666666" points="796.12,-412 722.38,-412 722.38,-392 796.12,-392 796.12,-412"/>
<text xml:space="preserve" text-anchor="middle" x="759.25" y="-398.5" font-family="Helvetica,sans-Serif" font-size="10.00">lru_add_drain</text>
</a>
</g>
</g>
<!-- Node154&#45;&gt;Node160 -->
<g id="edge29_Node000154_Node000160" class="edge">
<title>Node154&#45;&gt;Node160</title>
<g id="a_edge29_Node000154_Node000160"><a xlink:title=" ">
<path fill="none" stroke="#63b8ff" d="M902.93,-268.23C868.52,-300.49 797.99,-366.62 771.04,-391.88"/>
<polygon fill="#63b8ff" stroke="#63b8ff" points="905.23,-270.88 910.13,-261.48 900.44,-265.77 905.23,-270.88"/>
</a>
</g>
</g>
<!-- Node165 -->
<g id="Node000165" class="node">
<title>Node165</title>
<g id="a_Node000165"><a xlink:href="swap_8c.html#aefb7d8f57322a5dbcf5cdee7b134545b" target="_top" xlink:title=" ">
<polygon fill="white" stroke="#666666" points="819.75,-260 698.75,-260 698.75,-240 819.75,-240 819.75,-260"/>
<text xml:space="preserve" text-anchor="middle" x="759.25" y="-246.5" font-family="Helvetica,sans-Serif" font-size="10.00">lru_add_drain_cpu_zone</text>
</a>
</g>
</g>
<!-- Node154&#45;&gt;Node165 -->
<g id="edge39_Node000154_Node000165" class="edge">
<title>Node154&#45;&gt;Node165</title>
<g id="a_edge39_Node000154_Node000165"><a xlink:title=" ">
<path fill="none" stroke="#63b8ff" d="M864.59,-250C850.14,-250 834.6,-250 820.05,-250"/>
<polygon fill="#63b8ff" stroke="#63b8ff" points="864.4,-253.5 874.4,-250 864.4,-246.5 864.4,-253.5"/>
</a>
</g>
</g>
<!-- Node166 -->
<g id="Node000166" class="node">
<title>Node166</title>
<g id="a_Node000166"><a xlink:href="page__alloc_8c.html#a09258b5ecf34cabd75be739d6ce42762" target="_top" xlink:title=" ">
<polygon fill="white" stroke="#666666" points="814.12,-222 704.38,-222 704.38,-202 814.12,-202 814.12,-222"/>
<text xml:space="preserve" text-anchor="middle" x="759.25" y="-208.5" font-family="Helvetica,sans-Serif" font-size="10.00">page_alloc_cpu_dead</text>
</a>
</g>
</g>
<!-- Node154&#45;&gt;Node166 -->
<g id="edge40_Node000154_Node000166" class="edge">
<title>Node154&#45;&gt;Node166</title>
<g id="a_edge40_Node000154_Node000166"><a xlink:title=" ">
<path fill="none" stroke="#63b8ff" d="M866.7,-236.95C846.5,-232.22 823.95,-226.93 804.83,-222.45"/>
<polygon fill="#63b8ff" stroke="#63b8ff" points="865.64,-240.3 876.17,-239.17 867.23,-233.48 865.64,-240.3"/>
</a>
</g>
</g>
<!-- Node156 -->
<g id="Node000156" class="node">
<title>Node156</title>
<g id="a_Node000156"><a xlink:href="swap_8c.html#a55fbabea5e943fec625503fad58176ea" target="_top" xlink:title=" ">
<polygon fill="white" stroke="#666666" points="662.75,-336 549.25,-336 549.25,-316 662.75,-316 662.75,-336"/>
<text xml:space="preserve" text-anchor="middle" x="606" y="-322.5" font-family="Helvetica,sans-Serif" font-size="10.00">lru_add_drain_per_cpu</text>
</a>
</g>
</g>
<!-- Node155&#45;&gt;Node156 -->
<g id="edge24_Node000155_Node000156" class="edge">
<title>Node155&#45;&gt;Node156</title>
<g id="a_edge24_Node000155_Node000156"><a xlink:title=" ">
<path fill="none" stroke="#63b8ff" d="M695.08,-307.37C682.23,-310.08 668.89,-312.91 656.6,-315.51"/>
<polygon fill="#63b8ff" stroke="#63b8ff" points="695.66,-310.82 704.72,-305.33 694.21,-303.97 695.66,-310.82"/>
</a>
</g>
</g>
<!-- Node159 -->
<g id="Node000159" class="node">
<title>Node159</title>
<g id="a_Node000159"><a xlink:href="swap_8c.html#a6315185be80ff7daf73823c9bb9db403" target="_top" xlink:title=" ">
<polygon fill="white" stroke="#666666" points="371.25,-355 277.25,-355 277.25,-335 371.25,-335 371.25,-355"/>
<text xml:space="preserve" text-anchor="middle" x="324.25" y="-341.5" font-family="Helvetica,sans-Serif" font-size="10.00">lru_cache_disable</text>
</a>
</g>
</g>
<!-- Node155&#45;&gt;Node159 -->
<g id="edge28_Node000155_Node000159" class="edge">
<title>Node155&#45;&gt;Node159</title>
<g id="a_edge28_Node000155_Node000159"><a xlink:title=" ">
<path fill="none" stroke="#63b8ff" d="M694.88,-296.66C653.39,-298.72 598.02,-302.07 549.25,-307 488.86,-313.11 473.77,-315.42 414,-326 400.04,-328.47 384.92,-331.55 371.19,-334.51"/>
<polygon fill="#63b8ff" stroke="#63b8ff" points="694.86,-300.17 704.68,-296.19 694.53,-293.18 694.86,-300.17"/>
</a>
</g>
</g>
<!-- Node157 -->
<g id="Node000157" class="node">
<title>Node157</title>
<g id="a_Node000157"><a xlink:href="swap_8c.html#a4b44dac2994765d7ed3bf070ac7711e2" target="_top" xlink:title=" ">
<polygon fill="#fff0f0" stroke="red" points="513.25,-355 414,-355 414,-335 513.25,-335 513.25,-355"/>
<text xml:space="preserve" text-anchor="middle" x="463.62" y="-341.5" font-family="Helvetica,sans-Serif" font-size="10.00">__lru_add_drain_all</text>
</a>
</g>
</g>
<!-- Node156&#45;&gt;Node157 -->
<g id="edge25_Node000156_Node000157" class="edge">
<title>Node156&#45;&gt;Node157</title>
<g id="a_edge25_Node000156_Node000157"><a xlink:title=" ">
<path fill="none" stroke="#63b8ff" d="M537.96,-335.07C529.71,-336.19 521.42,-337.31 513.51,-338.38"/>
<polygon fill="#63b8ff" stroke="#63b8ff" points="538.18,-338.58 547.62,-333.77 537.24,-331.64 538.18,-338.58"/>
</a>
</g>
</g>
<!-- Node157&#45;&gt;Node159 -->
<g id="edge26_Node000157_Node000159" class="edge">
<title>Node157&#45;&gt;Node159</title>
<g id="a_edge26_Node000157_Node000159"><a xlink:title=" ">
<path fill="none" stroke="#63b8ff" d="M402.33,-345C392.03,-345 381.48,-345 371.61,-345"/>
<polygon fill="#63b8ff" stroke="#63b8ff" points="402.29,-348.5 412.29,-345 402.29,-341.5 402.29,-348.5"/>
</a>
</g>
</g>
<!-- Node159&#45;&gt;Node8 -->
<g id="edge27_Node000159_Node000008" class="edge">
<title>Node159&#45;&gt;Node8</title>
<g id="a_edge27_Node000159_Node000008"><a xlink:title=" ">
<path fill="none" stroke="#63b8ff" d="M298.18,-361.61C289.17,-367.95 279.11,-375.47 270.5,-383 252.98,-398.31 253.8,-408.01 234.5,-421 229.75,-424.2 224.53,-427.07 219.19,-429.64"/>
<polygon fill="#63b8ff" stroke="#63b8ff" points="299.93,-364.65 306.19,-356.1 295.96,-358.89 299.93,-364.65"/>
</a>
</g>
</g>
<!-- Node160&#45;&gt;Node19 -->
<g id="edge38_Node000160_Node000019" class="edge">
<title>Node160&#45;&gt;Node19</title>
<g id="a_edge38_Node000160_Node000019"><a xlink:title=" ">
<path fill="none" stroke="#63b8ff" d="M733.68,-418.62C714.84,-430.88 687.89,-447.37 662.75,-459 655.98,-462.13 648.53,-465.03 641.35,-467.56"/>
<polygon fill="#63b8ff" stroke="#63b8ff" points="735.56,-421.57 741.98,-413.14 731.71,-415.73 735.56,-421.57"/>
</a>
</g>
</g>
<!-- Node160&#45;&gt;Node157 -->
<g id="edge31_Node000160_Node000157" class="edge">
<title>Node160&#45;&gt;Node157</title>
<g id="a_edge31_Node000160_Node000157"><a xlink:title=" ">
<path fill="none" stroke="#63b8ff" d="M710.64,-402.12C667.77,-401.19 603.37,-397.19 549.25,-383 525.41,-376.75 499.84,-364.4 483.12,-355.47"/>
<polygon fill="#63b8ff" stroke="#63b8ff" points="710.56,-405.62 720.62,-402.29 710.67,-398.62 710.56,-405.62"/>
</a>
</g>
</g>
<!-- Node161 -->
<g id="Node000161" class="node">
<title>Node161</title>
<g id="a_Node000161"><a xlink:href="swap_8c.html#a000d7845bef1019d83d77856dd5861ae" target="_top" xlink:title=" ">
<polygon fill="#fff0f0" stroke="red" points="661.25,-374 550.75,-374 550.75,-354 661.25,-354 661.25,-374"/>
<text xml:space="preserve" text-anchor="middle" x="606" y="-360.5" font-family="Helvetica,sans-Serif" font-size="10.00">__folio_batch_release</text>
</a>
</g>
</g>
<!-- Node160&#45;&gt;Node161 -->
<g id="edge30_Node000160_Node000161" class="edge">
<title>Node160&#45;&gt;Node161</title>
<g id="a_edge30_Node000160_Node000161"><a xlink:title=" ">
<path fill="none" stroke="#63b8ff" d="M710.97,-390.12C690.97,-385.1 667.88,-379.3 648.55,-374.44"/>
<polygon fill="#63b8ff" stroke="#63b8ff" points="710,-393.49 720.55,-392.53 711.71,-386.7 710,-393.49"/>
</a>
</g>
</g>
<!-- Node160&#45;&gt;Node163 -->
<g id="edge32_Node000160_Node000163" class="edge">
<title>Node160&#45;&gt;Node163</title>
<g id="a_edge32_Node000160_Node000163"><a xlink:title=" ">
<path fill="none" stroke="#63b8ff" d="M710.97,-413.88C690.97,-418.9 667.88,-424.7 648.55,-429.56"/>
<polygon fill="#63b8ff" stroke="#63b8ff" points="711.71,-417.3 720.55,-411.47 710,-410.51 711.71,-417.3"/>
</a>
</g>
</g>
<!-- Node163&#45;&gt;Node20 -->
<g id="edge36_Node000163_Node000020" class="edge">
<title>Node163&#45;&gt;Node20</title>
<g id="a_edge36_Node000163_Node000020"><a xlink:title=" ">
<path fill="none" stroke="#63b8ff" d="M548.47,-440C529.89,-440 509.99,-440 494.24,-440"/>
<polygon fill="#63b8ff" stroke="#63b8ff" points="548.3,-443.5 558.3,-440 548.3,-436.5 548.3,-443.5"/>
</a>
</g>
</g>
<!-- Node163&#45;&gt;Node21 -->
<g id="edge37_Node000163_Node000021" class="edge">
<title>Node163&#45;&gt;Node21</title>
<g id="a_edge37_Node000163_Node000021"><a xlink:title=" ">
<path fill="none" stroke="#63b8ff" d="M548.88,-427.42C537.15,-425.06 524.82,-422.78 513.25,-421 460.72,-412.93 399.39,-407.46 361.43,-404.54"/>
<polygon fill="#63b8ff" stroke="#63b8ff" points="547.92,-430.8 558.42,-429.39 549.33,-423.94 547.92,-430.8"/>
</a>
</g>
</g>
<!-- Node164 -->
<g id="Node000164" class="node">
<title>Node164</title>
<g id="a_Node000164"><a xlink:href="vmscan_8c.html#a066531ce4df3002060d626027addd677" target="_top" xlink:title=" ">
<polygon fill="white" stroke="#666666" points="512.12,-488 415.12,-488 415.12,-468 512.12,-468 512.12,-488"/>
<text xml:space="preserve" text-anchor="middle" x="463.62" y="-474.5" font-family="Helvetica,sans-Serif" font-size="10.00">kswapd_age_node</text>
</a>
</g>
</g>
<!-- Node163&#45;&gt;Node164 -->
<g id="edge33_Node000163_Node000164" class="edge">
<title>Node163&#45;&gt;Node164</title>
<g id="a_edge33_Node000163_Node000164"><a xlink:title=" ">
<path fill="none" stroke="#63b8ff" d="M555.33,-453.45C538.22,-458.08 519.32,-463.19 503.23,-467.55"/>
<polygon fill="#63b8ff" stroke="#63b8ff" points="556.07,-456.87 564.81,-450.88 554.24,-450.11 556.07,-456.87"/>
</a>
</g>
</g>
<!-- Node60 -->
<g id="Node000060" class="node">
<title>Node60</title>
<g id="a_Node000060"><a xlink:href="vmscan_8c.html#aadaae6886cd4864d4542e50e91fa2713" target="_top" xlink:title=" ">
<polygon fill="white" stroke="#666666" points="363.75,-500 284.75,-500 284.75,-480 363.75,-480 363.75,-500"/>
<text xml:space="preserve" text-anchor="middle" x="324.25" y="-486.5" font-family="Helvetica,sans-Serif" font-size="10.00">balance_pgdat</text>
</a>
</g>
</g>
<!-- Node164&#45;&gt;Node60 -->
<g id="edge34_Node000164_Node000060" class="edge">
<title>Node164&#45;&gt;Node60</title>
<g id="a_edge34_Node000164_Node000060"><a xlink:title=" ">
<path fill="none" stroke="#63b8ff" d="M403.87,-483.13C390.46,-484.3 376.53,-485.52 364.19,-486.6"/>
<polygon fill="#63b8ff" stroke="#63b8ff" points="403.8,-486.65 413.46,-482.3 403.19,-479.68 403.8,-486.65"/>
</a>
</g>
</g>
<!-- Node61 -->
<g id="Node000061" class="node">
<title>Node61</title>
<g id="a_Node000061"><a xlink:href="vmscan_8c.html#a1c2142bf3f1cf9d6eceee43ee45e9f1a" target="_top" xlink:title=" ">
<polygon fill="#fff0f0" stroke="red" points="194.38,-500 144.62,-500 144.62,-480 194.38,-480 194.38,-500"/>
<text xml:space="preserve" text-anchor="middle" x="169.5" y="-486.5" font-family="Helvetica,sans-Serif" font-size="10.00">kswapd</text>
</a>
</g>
</g>
<!-- Node60&#45;&gt;Node61 -->
<g id="edge35_Node000060_Node000061" class="edge">
<title>Node60&#45;&gt;Node61</title>
<g id="a_edge35_Node000060_Node000061"><a xlink:title=" ">
<path fill="none" stroke="#63b8ff" d="M272.97,-490C246.61,-490 215.54,-490 194.58,-490"/>
<polygon fill="#63b8ff" stroke="#63b8ff" points="272.8,-493.5 282.8,-490 272.8,-486.5 272.8,-493.5"/>
</a>
</g>
</g>
<!-- Node167 -->
<g id="Node000167" class="node">
<title>Node167</title>
<g id="a_Node000167"><a xlink:href="page__alloc_8c.html#a74803302f0a68dd8bc94647a9ef3268c" target="_top" xlink:title=" ">
<polygon fill="white" stroke="#666666" points="662,-222 550,-222 550,-202 662,-202 662,-222"/>
<text xml:space="preserve" text-anchor="middle" x="606" y="-208.5" font-family="Helvetica,sans-Serif" font-size="10.00">page_alloc_init_cpuhp</text>
</a>
</g>
</g>
<!-- Node166&#45;&gt;Node167 -->
<g id="edge41_Node000166_Node000167" class="edge">
<title>Node166&#45;&gt;Node167</title>
<g id="a_edge41_Node000166_Node000167"><a xlink:title=" ">
<path fill="none" stroke="#63b8ff" d="M692.76,-212C682.62,-212 672.22,-212 662.33,-212"/>
<polygon fill="#63b8ff" stroke="#63b8ff" points="692.56,-215.5 702.56,-212 692.56,-208.5 692.56,-215.5"/>
</a>
</g>
</g>
<!-- Node168&#45;&gt;Node154 -->
<g id="edge44_Node000168_Node000154" class="edge">
<title>Node168&#45;&gt;Node154</title>
<g id="a_edge44_Node000168_Node000154"><a xlink:title=" ">
<path fill="none" stroke="#63b8ff" d="M1209.32,-198.88C1162.16,-188.12 1088.55,-177.05 1027,-193 992.08,-202.05 956.39,-225.83 937.69,-239.65"/>
<polygon fill="#63b8ff" stroke="#63b8ff" points="1208.41,-202.26 1218.95,-201.16 1210.03,-195.45 1208.41,-202.26"/>
</a>
</g>
</g>
<!-- Node169 -->
<g id="Node000169" class="node">
<title>Node169</title>
<g id="a_Node000169"><a xlink:href="swap_8c.html#abeeef6f333b42e5b34eea1faa9dcbe0a" target="_top" xlink:title=" ">
<polygon fill="white" stroke="#666666" points="1133.38,-222 1049.12,-222 1049.12,-202 1133.38,-202 1133.38,-222"/>
<text xml:space="preserve" text-anchor="middle" x="1091.25" y="-208.5" font-family="Helvetica,sans-Serif" font-size="10.00">folio_deactivate</text>
</a>
</g>
</g>
<!-- Node168&#45;&gt;Node169 -->
<g id="edge43_Node000168_Node000169" class="edge">
<title>Node168&#45;&gt;Node169</title>
<g id="a_edge43_Node000168_Node000169"><a xlink:title=" ">
<path fill="none" stroke="#63b8ff" d="M1208.61,-212C1184.78,-212 1156.39,-212 1133.63,-212"/>
<polygon fill="#63b8ff" stroke="#63b8ff" points="1208.39,-215.5 1218.39,-212 1208.39,-208.5 1208.39,-215.5"/>
</a>
</g>
</g>
<!-- Node170&#45;&gt;Node154 -->
<g id="edge47_Node000170_Node000154" class="edge">
<title>Node170&#45;&gt;Node154</title>
<g id="a_edge47_Node000170_Node000154"><a xlink:title=" ">
<path fill="none" stroke="#63b8ff" d="M1199.57,-327.92C1152.21,-327.92 1083.94,-324.28 1027,-307 992.87,-296.64 957.45,-273.81 938.45,-260.4"/>
<polygon fill="#63b8ff" stroke="#63b8ff" points="1199.36,-331.42 1209.33,-327.86 1199.31,-324.42 1199.36,-331.42"/>
</a>
</g>
</g>
<!-- Node171 -->
<g id="Node000171" class="node">
<title>Node171</title>
<g id="a_Node000171"><a xlink:href="swap_8c.html#aa8909f510437417e49093e9e10a823f7" target="_top" xlink:title=" ">
<polygon fill="white" stroke="#666666" points="1142.38,-374 1040.12,-374 1040.12,-354 1142.38,-354 1142.38,-374"/>
<text xml:space="preserve" text-anchor="middle" x="1091.25" y="-360.5" font-family="Helvetica,sans-Serif" font-size="10.00">deactivate_file_folio</text>
</a>
</g>
</g>
<!-- Node170&#45;&gt;Node171 -->
<g id="edge46_Node000170_Node000171" class="edge">
<title>Node170&#45;&gt;Node171</title>
<g id="a_edge46_Node000170_Node000171"><a xlink:title=" ">
<path fill="none" stroke="#63b8ff" d="M1200.67,-339.05C1180.09,-343.78 1157.13,-349.07 1137.66,-353.55"/>
<polygon fill="#63b8ff" stroke="#63b8ff" points="1201.38,-342.48 1210.34,-336.82 1199.81,-335.66 1201.38,-342.48"/>
</a>
</g>
</g>
<!-- Node172&#45;&gt;Node154 -->
<g id="edge50_Node000172_Node000154" class="edge">
<title>Node172&#45;&gt;Node154</title>
<g id="a_edge50_Node000172_Node000154"><a xlink:title=" ">
<path fill="none" stroke="#63b8ff" d="M1213.89,-278.88C1195.89,-275.36 1174.75,-271.58 1155.5,-269 1091.85,-260.47 1017.8,-255.19 971.01,-252.43"/>
<polygon fill="#63b8ff" stroke="#63b8ff" points="1212.96,-282.26 1223.45,-280.78 1214.33,-275.39 1212.96,-282.26"/>
</a>
</g>
</g>
<!-- Node173 -->
<g id="Node000173" class="node">
<title>Node173</title>
<g id="a_Node000173"><a xlink:href="swap_8c.html#a9d8f2f07ba5a50346adb5931c168e9f0" target="_top" xlink:title=" ">
<polygon fill="white" stroke="#666666" points="1141.62,-298 1040.88,-298 1040.88,-278 1141.62,-278 1141.62,-298"/>
<text xml:space="preserve" text-anchor="middle" x="1091.25" y="-284.5" font-family="Helvetica,sans-Serif" font-size="10.00">folio_mark_lazyfree</text>
</a>
</g>
</g>
<!-- Node172&#45;&gt;Node173 -->
<g id="edge49_Node000172_Node000173" class="edge">
<title>Node172&#45;&gt;Node173</title>
<g id="a_edge49_Node000172_Node000173"><a xlink:title=" ">
<path fill="none" stroke="#63b8ff" d="M1213.41,-288C1191.45,-288 1164.77,-288 1142.05,-288"/>
<polygon fill="#63b8ff" stroke="#63b8ff" points="1213.24,-291.5 1223.24,-288 1213.24,-284.5 1213.24,-291.5"/>
</a>
</g>
</g>
<!-- Node175 -->
<g id="Node000175" class="node">
<title>Node175</title>
<g id="a_Node000175"><a xlink:href="memcontrol_8c.html#a539fe852ece1ca57a5eb99b332d7951b" target="_top" xlink:title=" ">
<polygon fill="white" stroke="#666666" points="1309.88,-89 1206.88,-89 1206.88,-69 1309.88,-69 1309.88,-89"/>
<text xml:space="preserve" text-anchor="middle" x="1258.38" y="-75.5" font-family="Helvetica,sans-Serif" font-size="10.00">memcg_stat_format</text>
</a>
</g>
</g>
<!-- Node174&#45;&gt;Node175 -->
<g id="edge54_Node000174_Node000175" class="edge">
<title>Node174&#45;&gt;Node175</title>
<g id="a_edge54_Node000174_Node000175"><a xlink:title=" ">
<path fill="none" stroke="#63b8ff" d="M1369.33,-159.47C1366.53,-158.1 1363.81,-156.61 1361.25,-155 1341.56,-142.61 1343.52,-131.41 1325.25,-117 1311.46,-106.13 1294.22,-96.29 1280.83,-89.36"/>
<polygon fill="#63b8ff" stroke="#63b8ff" points="1367.76,-162.61 1378.33,-163.34 1370.52,-156.18 1367.76,-162.61"/>
</a>
</g>
</g>
<!-- Node176 -->
<g id="Node000176" class="node">
<title>Node176</title>
<g id="a_Node000176"><a xlink:href="memcontrol_8c.html#a44cae97a8782ff320f9ba25e25b50216" target="_top" xlink:title=" ">
<polygon fill="white" stroke="#666666" points="1144.25,-70 1038.25,-70 1038.25,-50 1144.25,-50 1144.25,-70"/>
<text xml:space="preserve" text-anchor="middle" x="1091.25" y="-56.5" font-family="Helvetica,sans-Serif" font-size="10.00">memory_stat_format</text>
</a>
</g>
</g>
<!-- Node175&#45;&gt;Node176 -->
<g id="edge55_Node000175_Node000176" class="edge">
<title>Node175&#45;&gt;Node176</title>
<g id="a_edge55_Node000175_Node000176"><a xlink:title=" ">
<path fill="none" stroke="#63b8ff" d="M1195.19,-71.84C1178.55,-69.93 1160.74,-67.88 1144.68,-66.03"/>
<polygon fill="#63b8ff" stroke="#63b8ff" points="1194.65,-75.31 1204.98,-72.97 1195.45,-68.35 1194.65,-75.31"/>
</a>
</g>
</g>
<!-- Node177 -->
<g id="Node000177" class="node">
<title>Node177</title>
<g id="a_Node000177"><a xlink:href="memcontrol_8c.html#a86da5f7107c109d7d75252346d1832ee" target="_top" xlink:title=" ">
<polygon fill="white" stroke="#666666" points="983.5,-32 863.25,-32 863.25,0 983.5,0 983.5,-32"/>
<text xml:space="preserve" text-anchor="start" x="871.25" y="-18.5" font-family="Helvetica,sans-Serif" font-size="10.00">mem_cgroup_print_oom</text>
<text xml:space="preserve" text-anchor="middle" x="923.38" y="-6.5" font-family="Helvetica,sans-Serif" font-size="10.00">_meminfo</text>
</a>
</g>
</g>
<!-- Node176&#45;&gt;Node177 -->
<g id="edge56_Node000176_Node000177" class="edge">
<title>Node176&#45;&gt;Node177</title>
<g id="a_edge56_Node000176_Node000177"><a xlink:title=" ">
<path fill="none" stroke="#63b8ff" d="M1039.98,-46.67C1022.29,-41.97 1002.23,-36.65 983.85,-31.78"/>
<polygon fill="#63b8ff" stroke="#63b8ff" points="1038.91,-50 1049.48,-49.18 1040.71,-43.24 1038.91,-50"/>
</a>
</g>
</g>
<!-- Node184 -->
<g id="Node000184" class="node">
<title>Node184</title>
<g id="a_Node000184"><a xlink:href="memcontrol_8c.html#a40e55f95e09395b59152ab5e58987fa1" target="_top" xlink:title=" ">
<polygon fill="white" stroke="#666666" points="974.12,-70 872.62,-70 872.62,-50 974.12,-50 974.12,-70"/>
<text xml:space="preserve" text-anchor="middle" x="923.38" y="-56.5" font-family="Helvetica,sans-Serif" font-size="10.00">memory_stat_show</text>
</a>
</g>
</g>
<!-- Node176&#45;&gt;Node184 -->
<g id="edge58_Node000176_Node000184" class="edge">
<title>Node176&#45;&gt;Node184</title>
<g id="a_edge58_Node000176_Node000184"><a xlink:title=" ">
<path fill="none" stroke="#63b8ff" d="M1026.63,-60C1009.37,-60 990.94,-60 974.54,-60"/>
<polygon fill="#63b8ff" stroke="#63b8ff" points="1026.25,-63.5 1036.25,-60 1026.25,-56.5 1026.25,-63.5"/>
</a>
</g>
</g>
<!-- Node178 -->
<g id="Node000178" class="node">
<title>Node178</title>
<g id="a_Node000178"><a xlink:href="oom__kill_8c.html#aea916b5aa02c3bfa036b26bbeeb0ab94" target="_top" xlink:title=" ">
<polygon fill="#fff0f0" stroke="red" points="796.5,-26 722,-26 722,-6 796.5,-6 796.5,-26"/>
<text xml:space="preserve" text-anchor="middle" x="759.25" y="-12.5" font-family="Helvetica,sans-Serif" font-size="10.00">dump_header</text>
</a>
</g>
</g>
<!-- Node177&#45;&gt;Node178 -->
<g id="edge57_Node000177_Node000178" class="edge">
<title>Node177&#45;&gt;Node178</title>
<g id="a_edge57_Node000177_Node000178"><a xlink:title=" ">
<path fill="none" stroke="#63b8ff" d="M851.56,-16C832.58,-16 812.84,-16 796.59,-16"/>
<polygon fill="#63b8ff" stroke="#63b8ff" points="851.41,-19.5 861.41,-16 851.41,-12.5 851.41,-19.5"/>
</a>
</g>
</g>
</g>
</svg>
