<?xml version="1.0" encoding="UTF-8" standalone="no"?>
<!DOCTYPE svg PUBLIC "-//W3C//DTD SVG 1.1//EN"
 "http://www.w3.org/Graphics/SVG/1.1/DTD/svg11.dtd">
<!-- Generated by graphviz version 15.1.0 (20260618.0150)
 -->
<!-- Title: page_counter_set_min Pages: 1 -->
<svg width="282pt" height="104pt"
 viewBox="0.00 0.00 282.00 104.00" xmlns="http://www.w3.org/2000/svg" xmlns:xlink="http://www.w3.org/1999/xlink">
<g id="graph0" class="graph" transform="scale(1 1) rotate(0) translate(4 100)">
<title>page_counter_set_min</title>
<!-- Node1 -->
<g id="Node000001" class="node">
<title>Node1</title>
<g id="a_Node000001"><a xlink:title=" ">
<polygon fill="#999999" stroke="#666666" points="274.25,-58 160,-58 160,-38 274.25,-38 274.25,-58"/>
<text xml:space="preserve" text-anchor="middle" x="217.12" y="-44.5" font-family="Helvetica,sans-Serif" font-size="10.00">page_counter_set_min</text>
</a>
</g>
</g>
<!-- Node2 -->
<g id="Node000002" class="node">
<title>Node2</title>
<g id="a_Node000002"><a xlink:href="memcontrol_8c.html#a54655ca3a47317bfc03036b1a9f2d641" target="_top" xlink:title=" ">
<polygon fill="white" stroke="#666666" points="124,-96 0,-96 0,-76 124,-76 124,-96"/>
<text xml:space="preserve" text-anchor="middle" x="62" y="-82.5" font-family="Helvetica,sans-Serif" font-size="10.00">mem_cgroup_css_offline</text>
</a>
</g>
</g>
<!-- Node1&#45;&gt;Node2 -->
<g id="edge1_Node000001_Node000002" class="edge">
<title>Node1&#45;&gt;Node2</title>
<g id="a_edge1_Node000001_Node000002"><a xlink:title=" ">
<path fill="none" stroke="#63b8ff" d="M162.74,-61.25C143.87,-65.93 122.92,-71.13 105.11,-75.55"/>
<polygon fill="#63b8ff" stroke="#63b8ff" points="163.55,-64.65 172.41,-58.85 161.86,-57.86 163.55,-64.65"/>
</a>
</g>
</g>
<!-- Node3 -->
<g id="Node000003" class="node">
<title>Node3</title>
<g id="a_Node000003"><a xlink:href="memcontrol_8c.html#a7de0beac3da2fdff490f380d6d291f4a" target="_top" xlink:title=" ">
<polygon fill="white" stroke="#666666" points="122.12,-58 1.88,-58 1.88,-38 122.12,-38 122.12,-58"/>
<text xml:space="preserve" text-anchor="middle" x="62" y="-44.5" font-family="Helvetica,sans-Serif" font-size="10.00">mem_cgroup_css_reset</text>
</a>
</g>
</g>
<!-- Node1&#45;&gt;Node3 -->
<g id="edge2_Node000001_Node000003" class="edge">
<title>Node1&#45;&gt;Node3</title>
<g id="a_edge2_Node000001_Node000003"><a xlink:title=" ">
<path fill="none" stroke="#63b8ff" d="M148.03,-48C139.5,-48 130.82,-48 122.43,-48"/>
<polygon fill="#63b8ff" stroke="#63b8ff" points="148.03,-51.5 158.03,-48 148.03,-44.5 148.03,-51.5"/>
</a>
</g>
</g>
<!-- Node4 -->
<g id="Node000004" class="node">
<title>Node4</title>
<g id="a_Node000004"><a xlink:href="memcontrol_8c.html#ad2d04332d119c02cfb38f44cf5de03f8" target="_top" xlink:title=" ">
<polygon fill="white" stroke="#666666" points="111.25,-20 12.75,-20 12.75,0 111.25,0 111.25,-20"/>
<text xml:space="preserve" text-anchor="middle" x="62" y="-6.5" font-family="Helvetica,sans-Serif" font-size="10.00">memory_min_write</text>
</a>
</g>
</g>
<!-- Node1&#45;&gt;Node4 -->
<g id="edge3_Node000001_Node000004" class="edge">
<title>Node1&#45;&gt;Node4</title>
<g id="a_edge3_Node000001_Node000004"><a xlink:title=" ">
<path fill="none" stroke="#63b8ff" d="M162.74,-34.75C143.87,-30.07 122.92,-24.87 105.11,-20.45"/>
<polygon fill="#63b8ff" stroke="#63b8ff" points="161.86,-38.14 172.41,-37.15 163.55,-31.35 161.86,-38.14"/>
</a>
</g>
</g>
</g>
</svg>
