<?xml version="1.0" encoding="UTF-8" standalone="no"?>
<!DOCTYPE svg PUBLIC "-//W3C//DTD SVG 1.1//EN"
 "http://www.w3.org/Graphics/SVG/1.1/DTD/svg11.dtd">
<!-- Generated by graphviz version 15.1.0 (20260618.0150)
 -->
<!-- Title: pcpu_chunk_addr_search Pages: 1 -->
<svg width="285pt" height="104pt"
 viewBox="0.00 0.00 285.00 104.00" xmlns="http://www.w3.org/2000/svg" xmlns:xlink="http://www.w3.org/1999/xlink">
<g id="graph0" class="graph" transform="scale(1 1) rotate(0) translate(4 100)">
<title>pcpu_chunk_addr_search</title>
<!-- Node1 -->
<g id="Node000001" class="node">
<title>Node1</title>
<g id="a_Node000001"><a xlink:title=" ">
<polygon fill="#999999" stroke="#666666" points="127,-58 0,-58 0,-38 127,-38 127,-58"/>
<text xml:space="preserve" text-anchor="middle" x="63.5" y="-44.5" font-family="Helvetica,sans-Serif" font-size="10.00">pcpu_chunk_addr_search</text>
</a>
</g>
</g>
<!-- Node2 -->
<g id="Node000002" class="node">
<title>Node2</title>
<g id="a_Node000002"><a xlink:href="percpu_8c.html#a9741b37752422d4c989a915c6414a937" target="_top" xlink:title=" ">
<polygon fill="white" stroke="#666666" points="272.38,-96 167.12,-96 167.12,-76 272.38,-76 272.38,-96"/>
<text xml:space="preserve" text-anchor="middle" x="219.75" y="-82.5" font-family="Helvetica,sans-Serif" font-size="10.00">pcpu_addr_in_chunk</text>
</a>
</g>
</g>
<!-- Node1&#45;&gt;Node2 -->
<g id="edge1_Node000001_Node000002" class="edge">
<title>Node1&#45;&gt;Node2</title>
<g id="a_edge1_Node000001_Node000002"><a xlink:title=" ">
<path fill="none" stroke="#63b8ff" d="M107.06,-58.48C125.1,-62.93 146.32,-68.16 165.39,-72.85"/>
<polygon fill="#63b8ff" stroke="#63b8ff" points="164.31,-76.19 174.86,-75.19 165.99,-69.4 164.31,-76.19"/>
</a>
</g>
</g>
<!-- Node3 -->
<g id="Node000003" class="node">
<title>Node3</title>
<g id="a_Node000003"><a xlink:href="percpu_8c.html#aac543c07105b43c11362e488f2865ddb" target="_top" xlink:title=" ">
<polygon fill="white" stroke="#666666" points="270.12,-58 169.38,-58 169.38,-38 270.12,-38 270.12,-58"/>
<text xml:space="preserve" text-anchor="middle" x="219.75" y="-44.5" font-family="Helvetica,sans-Serif" font-size="10.00">pcpu_addr_to_page</text>
</a>
</g>
</g>
<!-- Node1&#45;&gt;Node3 -->
<g id="edge2_Node000001_Node000003" class="edge">
<title>Node1&#45;&gt;Node3</title>
<g id="a_edge2_Node000001_Node000003"><a xlink:title=" ">
<path fill="none" stroke="#63b8ff" d="M127.24,-48C137.42,-48 147.95,-48 158.08,-48"/>
<polygon fill="#63b8ff" stroke="#63b8ff" points="157.79,-51.5 167.79,-48 157.79,-44.5 157.79,-51.5"/>
</a>
</g>
</g>
<!-- Node4 -->
<g id="Node000004" class="node">
<title>Node4</title>
<g id="a_Node000004"><a xlink:href="percpu_8c.html#a4b41360e94e7f6f106094c0bce87fec7" target="_top" xlink:title=" ">
<polygon fill="white" stroke="#666666" points="276.5,-20 163,-20 163,0 276.5,0 276.5,-20"/>
<text xml:space="preserve" text-anchor="middle" x="219.75" y="-6.5" font-family="Helvetica,sans-Serif" font-size="10.00">pcpu_get_page_chunk</text>
</a>
</g>
</g>
<!-- Node1&#45;&gt;Node4 -->
<g id="edge3_Node000001_Node000004" class="edge">
<title>Node1&#45;&gt;Node4</title>
<g id="a_edge3_Node000001_Node000004"><a xlink:title=" ">
<path fill="none" stroke="#63b8ff" d="M107.06,-37.52C125.1,-33.07 146.32,-27.84 165.39,-23.15"/>
<polygon fill="#63b8ff" stroke="#63b8ff" points="165.99,-26.6 174.86,-20.81 164.31,-19.81 165.99,-26.6"/>
</a>
</g>
</g>
</g>
</svg>
