<?xml version="1.0" encoding="UTF-8" standalone="no"?>
<!DOCTYPE svg PUBLIC "-//W3C//DTD SVG 1.1//EN"
 "http://www.w3.org/Graphics/SVG/1.1/DTD/svg11.dtd">
<!-- Generated by graphviz version 15.1.0 (20260618.0150)
 -->
<!-- Title: compaction_ready Pages: 1 -->
<svg width="2134pt" height="800pt"
 viewBox="0.00 0.00 2134.00 800.00" xmlns="http://www.w3.org/2000/svg" xmlns:xlink="http://www.w3.org/1999/xlink">
<g id="graph0" class="graph" transform="scale(1 1) rotate(0) translate(4 796)">
<title>compaction_ready</title>
<!-- Node1 -->
<g id="Node000001" class="node">
<title>Node1</title>
<g id="a_Node000001"><a xlink:title=" ">
<polygon fill="#999999" stroke="#666666" points="95.5,-754 0,-754 0,-734 95.5,-734 95.5,-754"/>
<text xml:space="preserve" text-anchor="middle" x="47.75" y="-740.5" font-family="Helvetica,sans-Serif" font-size="10.00">compaction_ready</text>
</a>
</g>
</g>
<!-- Node2 -->
<g id="Node000002" class="node">
<title>Node2</title>
<g id="a_Node000002"><a xlink:href="mmzone_8h.html#ae48c94232ad04dd61d83848c1e35020d" target="_top" xlink:title=" ">
<polygon fill="white" stroke="#666666" points="1276.88,-754 1176.88,-754 1176.88,-734 1276.88,-734 1276.88,-754"/>
<text xml:space="preserve" text-anchor="middle" x="1226.88" y="-740.5" font-family="Helvetica,sans-Serif" font-size="10.00">high_wmark_pages</text>
</a>
</g>
</g>
<!-- Node1&#45;&gt;Node2 -->
<g id="edge1_Node000001_Node000002" class="edge">
<title>Node1&#45;&gt;Node2</title>
<g id="a_edge1_Node000001_Node000002"><a xlink:title=" ">
<path fill="none" stroke="#63b8ff" d="M95.58,-744C150.95,-744 245.87,-744 327.38,-744 327.38,-744 327.38,-744 908.25,-744 997.67,-744 1101.25,-744 1165.17,-744"/>
<polygon fill="#63b8ff" stroke="#63b8ff" points="1165.12,-747.5 1175.12,-744 1165.12,-740.5 1165.12,-747.5"/>
</a>
</g>
</g>
<!-- Node4 -->
<g id="Node000004" class="node">
<title>Node4</title>
<g id="a_Node000004"><a xlink:href="mmzone_8h.html#a1e0e21f35dd534b164e970c142bb9052" target="_top" xlink:title=" ">
<polygon fill="white" stroke="#666666" points="377.25,-792 279.5,-792 279.5,-772 377.25,-772 377.25,-792"/>
<text xml:space="preserve" text-anchor="middle" x="328.38" y="-778.5" font-family="Helvetica,sans-Serif" font-size="10.00">min_wmark_pages</text>
</a>
</g>
</g>
<!-- Node1&#45;&gt;Node4 -->
<g id="edge3_Node000001_Node000004" class="edge">
<title>Node1&#45;&gt;Node4</title>
<g id="a_edge3_Node000001_Node000004"><a xlink:title=" ">
<path fill="none" stroke="#63b8ff" d="M95.95,-752.37C107.56,-754.32 119.97,-756.32 131.5,-758 177.22,-764.67 229.13,-770.97 268.02,-775.44"/>
<polygon fill="#63b8ff" stroke="#63b8ff" points="267.56,-778.91 277.89,-776.57 268.35,-771.96 267.56,-778.91"/>
</a>
</g>
</g>
<!-- Node5 -->
<g id="Node000005" class="node">
<title>Node5</title>
<g id="a_Node000005"><a xlink:href="page__alloc_8c.html#a106ca290108cf34a86da506d38df83ad" target="_top" xlink:title=" ">
<polygon fill="white" stroke="#666666" points="235.25,-621 131.5,-621 131.5,-601 235.25,-601 235.25,-621"/>
<text xml:space="preserve" text-anchor="middle" x="183.38" y="-607.5" font-family="Helvetica,sans-Serif" font-size="10.00">zone_watermark_ok</text>
</a>
</g>
</g>
<!-- Node1&#45;&gt;Node5 -->
<g id="edge5_Node000001_Node000005" class="edge">
<title>Node1&#45;&gt;Node5</title>
<g id="a_edge5_Node000001_Node000005"><a xlink:title=" ">
<path fill="none" stroke="#63b8ff" d="M59.24,-733.56C81.87,-711.03 135.57,-657.59 163.99,-629.3"/>
<polygon fill="#63b8ff" stroke="#63b8ff" points="166.25,-631.99 170.87,-622.46 161.31,-627.03 166.25,-631.99"/>
</a>
</g>
</g>
<!-- Node3 -->
<g id="Node000003" class="node">
<title>Node3</title>
<g id="a_Node000003"><a xlink:href="mmzone_8h.html#a5427cd56954c7d92b24a62e13b0b4337" target="_top" xlink:title=" ">
<polygon fill="white" stroke="#666666" points="1442.5,-773 1365.75,-773 1365.75,-753 1442.5,-753 1442.5,-773"/>
<text xml:space="preserve" text-anchor="middle" x="1404.12" y="-759.5" font-family="Helvetica,sans-Serif" font-size="10.00">wmark_pages</text>
</a>
</g>
</g>
<!-- Node2&#45;&gt;Node3 -->
<g id="edge2_Node000002_Node000003" class="edge">
<title>Node2&#45;&gt;Node3</title>
<g id="a_edge2_Node000002_Node000003"><a xlink:title=" ">
<path fill="none" stroke="#63b8ff" d="M1277.16,-749.34C1301.17,-751.95 1329.97,-755.07 1353.97,-757.67"/>
<polygon fill="#63b8ff" stroke="#63b8ff" points="1353.49,-761.14 1363.81,-758.74 1354.25,-754.18 1353.49,-761.14"/>
</a>
</g>
</g>
<!-- Node4&#45;&gt;Node3 -->
<g id="edge4_Node000004_Node000003" class="edge">
<title>Node4&#45;&gt;Node3</title>
<g id="a_edge4_Node000004_Node000003"><a xlink:title=" ">
<path fill="none" stroke="#63b8ff" d="M377.58,-782C441.67,-782 558.47,-782 658.25,-782 658.25,-782 658.25,-782 1067.5,-782 1169.63,-782 1288.96,-773.12 1354.25,-767.5"/>
<polygon fill="#63b8ff" stroke="#63b8ff" points="1354.25,-771.02 1363.91,-766.66 1353.64,-764.04 1354.25,-771.02"/>
</a>
</g>
</g>
<!-- Node6 -->
<g id="Node000006" class="node">
<title>Node6</title>
<g id="a_Node000006"><a xlink:href="page__alloc_8c.html#a1237875df25e6dea1aa6937aef956e02" target="_top" xlink:title=" ">
<polygon fill="white" stroke="#666666" points="385.5,-581 271.25,-581 271.25,-561 385.5,-561 385.5,-581"/>
<text xml:space="preserve" text-anchor="middle" x="328.38" y="-567.5" font-family="Helvetica,sans-Serif" font-size="10.00">__zone_watermark_ok</text>
</a>
</g>
</g>
<!-- Node5&#45;&gt;Node6 -->
<g id="edge6_Node000005_Node000006" class="edge">
<title>Node5&#45;&gt;Node6</title>
<g id="a_edge6_Node000005_Node000006"><a xlink:title=" ">
<path fill="none" stroke="#63b8ff" d="M221.57,-600.59C239.06,-595.7 260.14,-589.81 278.86,-584.57"/>
<polygon fill="#63b8ff" stroke="#63b8ff" points="279.72,-587.96 288.41,-581.9 277.84,-581.22 279.72,-587.96"/>
</a>
</g>
</g>
<!-- Node7 -->
<g id="Node000007" class="node">
<title>Node7</title>
<g id="a_Node000007"><a xlink:href="page__alloc_8c.html#a6f6c392f059b812a471029d7e1269242" target="_top" xlink:title=" ">
<polygon fill="white" stroke="#666666" points="586,-581 421.5,-581 421.5,-561 586,-561 586,-581"/>
<text xml:space="preserve" text-anchor="middle" x="503.75" y="-567.5" font-family="Helvetica,sans-Serif" font-size="10.00">__zone_watermark_unusable_free</text>
</a>
</g>
</g>
<!-- Node6&#45;&gt;Node7 -->
<g id="edge7_Node000006_Node000007" class="edge">
<title>Node6&#45;&gt;Node7</title>
<g id="a_edge7_Node000006_Node000007"><a xlink:title=" ">
<path fill="none" stroke="#63b8ff" d="M385.66,-571C393.48,-571 401.68,-571 409.95,-571"/>
<polygon fill="#63b8ff" stroke="#63b8ff" points="409.73,-574.5 419.73,-571 409.73,-567.5 409.73,-574.5"/>
</a>
</g>
</g>
<!-- Node8 -->
<g id="Node000008" class="node">
<title>Node8</title>
<g id="a_Node000008"><a xlink:href="page__alloc_8c.html#a644e65789e77afa946f3d755e7a069f9" target="_top" xlink:title=" ">
<polygon fill="white" stroke="#666666" points="535.75,-540 471.75,-540 471.75,-520 535.75,-520 535.75,-540"/>
<text xml:space="preserve" text-anchor="middle" x="503.75" y="-526.5" font-family="Helvetica,sans-Serif" font-size="10.00">free_pages</text>
</a>
</g>
</g>
<!-- Node6&#45;&gt;Node8 -->
<g id="edge8_Node000006_Node000008" class="edge">
<title>Node6&#45;&gt;Node8</title>
<g id="a_edge8_Node000006_Node000008"><a xlink:title=" ">
<path fill="none" stroke="#63b8ff" d="M373.57,-560.55C400.23,-554.24 434,-546.26 460.33,-540.03"/>
<polygon fill="#63b8ff" stroke="#63b8ff" points="461.09,-543.45 470.01,-537.74 459.47,-536.64 461.09,-543.45"/>
</a>
</g>
</g>
<!-- Node9 -->
<g id="Node000009" class="node">
<title>Node9</title>
<g id="a_Node000009"><a xlink:href="page__alloc_8c.html#a09a84df4c6cb817075a2eece7c7c0345" target="_top" xlink:title=" ">
<polygon fill="white" stroke="#666666" points="696.5,-535 622,-535 622,-515 696.5,-515 696.5,-535"/>
<text xml:space="preserve" text-anchor="middle" x="659.25" y="-521.5" font-family="Helvetica,sans-Serif" font-size="10.00">__free_pages</text>
</a>
</g>
</g>
<!-- Node8&#45;&gt;Node9 -->
<g id="edge9_Node000008_Node000009" class="edge">
<title>Node8&#45;&gt;Node9</title>
<g id="a_edge9_Node000008_Node000009"><a xlink:title=" ">
<path fill="none" stroke="#63b8ff" d="M536.18,-528.98C557.52,-528.28 586.12,-527.35 610.28,-526.56"/>
<polygon fill="#63b8ff" stroke="#63b8ff" points="610.34,-530.06 620.22,-526.24 610.11,-523.07 610.34,-530.06"/>
</a>
</g>
</g>
<!-- Node10 -->
<g id="Node000010" class="node">
<title>Node10</title>
<g id="a_Node000010"><a xlink:href="page__alloc_8c.html#a29cc9a1a7a8abda03d60b8359bdceb30" target="_top" xlink:title=" ">
<polygon fill="white" stroke="#666666" points="812.25,-526 732.5,-526 732.5,-506 812.25,-506 812.25,-526"/>
<text xml:space="preserve" text-anchor="middle" x="772.38" y="-512.5" font-family="Helvetica,sans-Serif" font-size="10.00">___free_pages</text>
</a>
</g>
</g>
<!-- Node9&#45;&gt;Node10 -->
<g id="edge10_Node000009_Node000010" class="edge">
<title>Node9&#45;&gt;Node10</title>
<g id="a_edge10_Node000009_Node000010"><a xlink:title=" ">
<path fill="none" stroke="#63b8ff" d="M696.94,-522.03C704.59,-521.41 712.78,-520.75 720.83,-520.09"/>
<polygon fill="#63b8ff" stroke="#63b8ff" points="720.85,-523.6 730.54,-519.31 720.29,-516.63 720.85,-523.6"/>
</a>
</g>
</g>
<!-- Node11 -->
<g id="Node000011" class="node">
<title>Node11</title>
<g id="a_Node000011"><a xlink:href="page__alloc_8c.html#ab67bf7dc09d1eab8806be09468c2d3b1" target="_top" xlink:title=" ">
<polygon fill="white" stroke="#666666" points="960.62,-431 853.88,-431 853.88,-411 960.62,-411 960.62,-431"/>
<text xml:space="preserve" text-anchor="middle" x="907.25" y="-417.5" font-family="Helvetica,sans-Serif" font-size="10.00">__free_frozen_pages</text>
</a>
</g>
</g>
<!-- Node10&#45;&gt;Node11 -->
<g id="edge11_Node000010_Node000011" class="edge">
<title>Node10&#45;&gt;Node11</title>
<g id="a_edge11_Node000010_Node000011"><a xlink:title=" ">
<path fill="none" stroke="#63b8ff" d="M787.85,-505.65C810.61,-489.38 855.02,-457.63 882.5,-437.98"/>
<polygon fill="#63b8ff" stroke="#63b8ff" points="884.46,-440.88 890.56,-432.22 880.39,-435.18 884.46,-440.88"/>
</a>
</g>
</g>
<!-- Node94 -->
<g id="Node000094" class="node">
<title>Node94</title>
<g id="a_Node000094"><a xlink:href="page__alloc_8c.html#a37c1e7a93e8862dd0ae1c65fa0f2fd02" target="_top" xlink:title=" ">
<polygon fill="white" stroke="#666666" points="966.25,-526 848.25,-526 848.25,-506 966.25,-506 966.25,-526"/>
<text xml:space="preserve" text-anchor="middle" x="907.25" y="-512.5" font-family="Helvetica,sans-Serif" font-size="10.00">pgalloc_tag_sub_pages</text>
</a>
</g>
</g>
<!-- Node10&#45;&gt;Node94 -->
<g id="edge61_Node000010_Node000094" class="edge">
<title>Node10&#45;&gt;Node94</title>
<g id="a_edge61_Node000010_Node000094"><a xlink:title=" ">
<path fill="none" stroke="#63b8ff" d="M812.52,-516C820.21,-516 828.48,-516 836.82,-516"/>
<polygon fill="#63b8ff" stroke="#63b8ff" points="836.66,-519.5 846.66,-516 836.66,-512.5 836.66,-519.5"/>
</a>
</g>
</g>
<!-- Node12 -->
<g id="Node000012" class="node">
<title>Node12</title>
<g id="a_Node000012"><a xlink:href="page__alloc_8c.html#afa7b19cf8d46963fd5ca172b6c8b815e" target="_top" xlink:title=" ">
<polygon fill="white" stroke="#666666" points="1111.62,-374 1021.38,-374 1021.38,-354 1111.62,-354 1111.62,-374"/>
<text xml:space="preserve" text-anchor="middle" x="1066.5" y="-360.5" font-family="Helvetica,sans-Serif" font-size="10.00">__free_pages_ok</text>
</a>
</g>
</g>
<!-- Node11&#45;&gt;Node12 -->
<g id="edge12_Node000011_Node000012" class="edge">
<title>Node11&#45;&gt;Node12</title>
<g id="a_edge12_Node000011_Node000012"><a xlink:title=" ">
<path fill="none" stroke="#63b8ff" d="M937.09,-410.55C962.06,-401.49 998.41,-388.32 1026.07,-378.29"/>
<polygon fill="#63b8ff" stroke="#63b8ff" points="1026.94,-381.7 1035.15,-375 1024.56,-375.12 1026.94,-381.7"/>
</a>
</g>
</g>
<!-- Node13 -->
<g id="Node000013" class="node">
<title>Node13</title>
<g id="a_Node000013"><a xlink:href="page__alloc_8c.html#acca832f63cf3c41efa22a394ca6d5183" target="_top" xlink:title=" ">
<polygon fill="white" stroke="#666666" points="1282.88,-210 1170.88,-210 1170.88,-190 1282.88,-190 1282.88,-210"/>
<text xml:space="preserve" text-anchor="middle" x="1226.88" y="-196.5" font-family="Helvetica,sans-Serif" font-size="10.00">__free_pages_prepare</text>
</a>
</g>
</g>
<!-- Node11&#45;&gt;Node13 -->
<g id="edge44_Node000011_Node000013" class="edge">
<title>Node11&#45;&gt;Node13</title>
<g id="a_edge44_Node000011_Node000013"><a xlink:title=" ">
<path fill="none" stroke="#63b8ff" d="M914.58,-410.59C928.24,-388.86 962.45,-338.13 1002.25,-307 1058.27,-263.18 1135.15,-231.35 1182.61,-214.29"/>
<polygon fill="#63b8ff" stroke="#63b8ff" points="1183.74,-217.6 1192.01,-210.97 1181.42,-211 1183.74,-217.6"/>
</a>
</g>
</g>
<!-- Node57 -->
<g id="Node000057" class="node">
<title>Node57</title>
<g id="a_Node000057"><a xlink:href="page__alloc_8c.html#a5bcdf41e0df1dab0f24c65ce6145e6ac" target="_top" xlink:title=" ">
<polygon fill="white" stroke="#666666" points="1266.75,-488 1187,-488 1187,-468 1266.75,-468 1266.75,-488"/>
<text xml:space="preserve" text-anchor="middle" x="1226.88" y="-474.5" font-family="Helvetica,sans-Serif" font-size="10.00">free_one_page</text>
</a>
</g>
</g>
<!-- Node11&#45;&gt;Node57 -->
<g id="edge58_Node000011_Node000057" class="edge">
<title>Node11&#45;&gt;Node57</title>
<g id="a_edge58_Node000011_Node000057"><a xlink:title=" ">
<path fill="none" stroke="#63b8ff" d="M932.92,-431.43C951.62,-438.89 978.13,-448.55 1002.25,-454 1060.76,-467.22 1129.58,-473.22 1175.26,-475.9"/>
<polygon fill="#63b8ff" stroke="#63b8ff" points="1174.96,-479.39 1185.13,-476.44 1175.34,-472.4 1174.96,-479.39"/>
</a>
</g>
</g>
<!-- Node58 -->
<g id="Node000058" class="node">
<title>Node58</title>
<g id="a_Node000058"><a xlink:href="page__alloc_8c.html#a6daec24c1e45520477a46fa7edb234c4" target="_top" xlink:title=" ">
<polygon fill="white" stroke="#666666" points="1463.12,-450 1345.12,-450 1345.12,-430 1463.12,-430 1463.12,-450"/>
<text xml:space="preserve" text-anchor="middle" x="1404.12" y="-436.5" font-family="Helvetica,sans-Serif" font-size="10.00">add_page_to_zone_llist</text>
</a>
</g>
</g>
<!-- Node11&#45;&gt;Node58 -->
<g id="edge45_Node000011_Node000058" class="edge">
<title>Node11&#45;&gt;Node58</title>
<g id="a_edge45_Node000011_Node000058"><a xlink:title=" ">
<path fill="none" stroke="#63b8ff" d="M960.74,-423.02C1050.44,-426.46 1233.23,-433.48 1333.49,-437.33"/>
<polygon fill="#63b8ff" stroke="#63b8ff" points="1333.06,-440.81 1343.19,-437.7 1333.33,-433.82 1333.06,-440.81"/>
</a>
</g>
</g>
<!-- Node79 -->
<g id="Node000079" class="node">
<title>Node79</title>
<g id="a_Node000079"><a xlink:href="page__alloc_8c.html#a997be94ad43927a0e1990dda0f6c4f4a" target="_top" xlink:title=" ">
<polygon fill="white" stroke="#666666" points="1810.5,-469 1682.75,-469 1682.75,-449 1810.5,-449 1810.5,-469"/>
<text xml:space="preserve" text-anchor="middle" x="1746.62" y="-455.5" font-family="Helvetica,sans-Serif" font-size="10.00">get_pfnblock_migratetype</text>
</a>
</g>
</g>
<!-- Node11&#45;&gt;Node79 -->
<g id="edge59_Node000011_Node000079" class="edge">
<title>Node11&#45;&gt;Node79</title>
<g id="a_edge59_Node000011_Node000079"><a xlink:title=" ">
<path fill="none" stroke="#63b8ff" d="M961.02,-415.91C1024,-410.28 1132.52,-402 1225.88,-402 1225.88,-402 1225.88,-402 1405.12,-402 1510.51,-402 1631.76,-428.89 1697.36,-445.73"/>
<polygon fill="#63b8ff" stroke="#63b8ff" points="1696.15,-449.03 1706.71,-448.16 1697.92,-442.26 1696.15,-449.03"/>
</a>
</g>
</g>
<!-- Node85 -->
<g id="Node000085" class="node">
<title>Node85</title>
<g id="a_Node000085"><a xlink:href="page__alloc_8c.html#a5adcfda72a753a9d3caae602ca995ce2" target="_top" xlink:title=" ">
<polygon fill="white" stroke="#666666" points="1130.75,-621 1002.25,-621 1002.25,-601 1130.75,-601 1130.75,-621"/>
<text xml:space="preserve" text-anchor="middle" x="1066.5" y="-607.5" font-family="Helvetica,sans-Serif" font-size="10.00">free_frozen_page_commit</text>
</a>
</g>
</g>
<!-- Node11&#45;&gt;Node85 -->
<g id="edge46_Node000011_Node000085" class="edge">
<title>Node11&#45;&gt;Node85</title>
<g id="a_edge46_Node000011_Node000085"><a xlink:title=" ">
<path fill="none" stroke="#63b8ff" d="M916.93,-431.49C942.44,-462.31 1017.45,-552.94 1050.06,-592.35"/>
<polygon fill="#63b8ff" stroke="#63b8ff" points="1047,-594.14 1056.08,-599.61 1052.4,-589.68 1047,-594.14"/>
</a>
</g>
</g>
<!-- Node93 -->
<g id="Node000093" class="node">
<title>Node93</title>
<g id="a_Node000093"><a xlink:href="page__alloc_8c.html#a1e31d17712e1c31af9d58d8adf897ffa" target="_top" xlink:title=" ">
<polygon fill="white" stroke="#666666" points="1115,-336 1018,-336 1018,-316 1115,-316 1115,-336"/>
<text xml:space="preserve" text-anchor="middle" x="1066.5" y="-322.5" font-family="Helvetica,sans-Serif" font-size="10.00">pcp_allowed_order</text>
</a>
</g>
</g>
<!-- Node11&#45;&gt;Node93 -->
<g id="edge60_Node000011_Node000093" class="edge">
<title>Node11&#45;&gt;Node93</title>
<g id="a_edge60_Node000011_Node000093"><a xlink:title=" ">
<path fill="none" stroke="#63b8ff" d="M918.27,-410.63C934.48,-394.4 968.1,-363.03 1002.25,-345 1005.29,-343.39 1008.5,-341.9 1011.77,-340.52"/>
<polygon fill="#63b8ff" stroke="#63b8ff" points="1012.89,-343.84 1021,-337.01 1010.41,-337.29 1012.89,-343.84"/>
</a>
</g>
</g>
<!-- Node12&#45;&gt;Node13 -->
<g id="edge13_Node000012_Node000013" class="edge">
<title>Node12&#45;&gt;Node13</title>
<g id="a_edge13_Node000012_Node000013"><a xlink:title=" ">
<path fill="none" stroke="#63b8ff" d="M1111.93,-355C1118.62,-352.45 1125.14,-349.18 1130.75,-345 1174.83,-312.11 1204.43,-252.33 1217.78,-220.78"/>
<polygon fill="#63b8ff" stroke="#63b8ff" points="1220.99,-222.17 1221.52,-211.59 1214.51,-219.53 1220.99,-222.17"/>
</a>
</g>
</g>
<!-- Node12&#45;&gt;Node57 -->
<g id="edge36_Node000012_Node000057" class="edge">
<title>Node12&#45;&gt;Node57</title>
<g id="a_edge36_Node000012_Node000057"><a xlink:title=" ">
<path fill="none" stroke="#63b8ff" d="M1081.83,-374.32C1109.28,-394.07 1169.46,-437.39 1202.69,-461.31"/>
<polygon fill="#63b8ff" stroke="#63b8ff" points="1200.3,-463.9 1210.46,-466.9 1204.39,-458.22 1200.3,-463.9"/>
</a>
</g>
</g>
<!-- Node14 -->
<g id="Node000014" class="node">
<title>Node14</title>
<g id="a_Node000014"><a xlink:href="memcontrol_8c.html#a3abddc4be1110f7ca820e0c9370bb35b" target="_top" xlink:title=" ">
<polygon fill="white" stroke="#666666" points="1485.25,-292 1323,-292 1323,-272 1485.25,-272 1485.25,-292"/>
<text xml:space="preserve" text-anchor="middle" x="1404.12" y="-278.5" font-family="Helvetica,sans-Serif" font-size="10.00">__memcg_kmem_uncharge_page</text>
</a>
</g>
</g>
<!-- Node13&#45;&gt;Node14 -->
<g id="edge14_Node000013_Node000014" class="edge">
<title>Node13&#45;&gt;Node14</title>
<g id="a_edge14_Node000013_Node000014"><a xlink:title=" ">
<path fill="none" stroke="#63b8ff" d="M1242.76,-210.45C1260.98,-222.87 1293.13,-243.62 1323,-257 1332.28,-261.16 1342.45,-264.9 1352.33,-268.15"/>
<polygon fill="#63b8ff" stroke="#63b8ff" points="1351.28,-271.49 1361.87,-271.16 1353.38,-264.82 1351.28,-271.49"/>
</a>
</g>
</g>
<!-- Node43 -->
<g id="Node000043" class="node">
<title>Node43</title>
<g id="a_Node000043"><a xlink:href="page__alloc_8c.html#a3056af8a87615de84ef717c91a9dabdf" target="_top" xlink:title=" ">
<polygon fill="white" stroke="#666666" points="1450.38,-210 1357.88,-210 1357.88,-190 1450.38,-190 1450.38,-210"/>
<text xml:space="preserve" text-anchor="middle" x="1404.12" y="-196.5" font-family="Helvetica,sans-Serif" font-size="10.00">free_page_is_bad</text>
</a>
</g>
</g>
<!-- Node13&#45;&gt;Node43 -->
<g id="edge20_Node000013_Node000043" class="edge">
<title>Node13&#45;&gt;Node43</title>
<g id="a_edge20_Node000013_Node000043"><a xlink:title=" ">
<path fill="none" stroke="#63b8ff" d="M1283.33,-200C1303.37,-200 1326.02,-200 1346.19,-200"/>
<polygon fill="#63b8ff" stroke="#63b8ff" points="1345.91,-203.5 1355.91,-200 1345.91,-196.5 1345.91,-203.5"/>
</a>
</g>
</g>
<!-- Node47 -->
<g id="Node000047" class="node">
<title>Node47</title>
<g id="a_Node000047"><a xlink:href="page__alloc_8c.html#a9c702577a05a9b1aabe857f9a4789487" target="_top" xlink:title=" ">
<polygon fill="white" stroke="#666666" points="1461.25,-172 1347,-172 1347,-152 1461.25,-152 1461.25,-172"/>
<text xml:space="preserve" text-anchor="middle" x="1404.12" y="-158.5" font-family="Helvetica,sans-Serif" font-size="10.00">free_tail_page_prepare</text>
</a>
</g>
</g>
<!-- Node13&#45;&gt;Node47 -->
<g id="edge24_Node000013_Node000047" class="edge">
<title>Node13&#45;&gt;Node47</title>
<g id="a_edge24_Node000013_Node000047"><a xlink:title=" ">
<path fill="none" stroke="#63b8ff" d="M1276.23,-189.52C1297.11,-184.99 1321.73,-179.65 1343.71,-174.88"/>
<polygon fill="#63b8ff" stroke="#63b8ff" points="1344.42,-178.31 1353.45,-172.77 1342.94,-171.47 1344.42,-178.31"/>
</a>
</g>
</g>
<!-- Node48 -->
<g id="Node000048" class="node">
<title>Node48</title>
<g id="a_Node000048"><a xlink:href="page__alloc_8c.html#a8fdc94144ad443884bf8ca36a1e3dcb9" target="_top" xlink:title=" ">
<polygon fill="white" stroke="#666666" points="1646.75,-134 1521.25,-134 1521.25,-114 1646.75,-114 1646.75,-134"/>
<text xml:space="preserve" text-anchor="middle" x="1584" y="-120.5" font-family="Helvetica,sans-Serif" font-size="10.00">is_check_pages_enabled</text>
</a>
</g>
</g>
<!-- Node13&#45;&gt;Node48 -->
<g id="edge27_Node000013_Node000048" class="edge">
<title>Node13&#45;&gt;Node48</title>
<g id="a_edge27_Node000013_Node000048"><a xlink:title=" ">
<path fill="none" stroke="#63b8ff" d="M1240.77,-189.54C1258.22,-176.07 1290.88,-153.16 1323,-143 1383.8,-123.76 1456.45,-119.95 1509.47,-120.4"/>
<polygon fill="#63b8ff" stroke="#63b8ff" points="1509.25,-123.9 1519.3,-120.55 1509.35,-116.9 1509.25,-123.9"/>
</a>
</g>
</g>
<!-- Node49 -->
<g id="Node000049" class="node">
<title>Node49</title>
<g id="a_Node000049"><a xlink:href="page__alloc_8c.html#adb2de7a91656c823270d4703a88576b0" target="_top" xlink:title=" ">
<polygon fill="white" stroke="#666666" points="1450,-330 1358.25,-330 1358.25,-310 1450,-310 1450,-330"/>
<text xml:space="preserve" text-anchor="middle" x="1404.12" y="-316.5" font-family="Helvetica,sans-Serif" font-size="10.00">kernel_init_pages</text>
</a>
</g>
</g>
<!-- Node13&#45;&gt;Node49 -->
<g id="edge28_Node000013_Node000049" class="edge">
<title>Node13&#45;&gt;Node49</title>
<g id="a_edge28_Node000013_Node000049"><a xlink:title=" ">
<path fill="none" stroke="#63b8ff" d="M1234.58,-210.47C1248.43,-231.2 1282.33,-277.49 1323,-301 1330.4,-305.28 1338.72,-308.59 1347.12,-311.16"/>
<polygon fill="#63b8ff" stroke="#63b8ff" points="1346.11,-314.52 1356.67,-313.74 1347.93,-307.76 1346.11,-314.52"/>
</a>
</g>
</g>
<!-- Node50 -->
<g id="Node000050" class="node">
<title>Node50</title>
<g id="a_Node000050"><a xlink:href="memcontrol_8h.html#ad6ebb87d89cde24b2da634f363f4ee4d" target="_top" xlink:title=" ">
<polygon fill="white" stroke="#666666" points="1459.75,-248 1348.5,-248 1348.5,-228 1459.75,-228 1459.75,-248"/>
<text xml:space="preserve" text-anchor="middle" x="1404.12" y="-234.5" font-family="Helvetica,sans-Serif" font-size="10.00">memcg_kmem_online</text>
</a>
</g>
</g>
<!-- Node13&#45;&gt;Node50 -->
<g id="edge29_Node000013_Node000050" class="edge">
<title>Node13&#45;&gt;Node50</title>
<g id="a_edge29_Node000013_Node000050"><a xlink:title=" ">
<path fill="none" stroke="#63b8ff" d="M1276.23,-210.48C1297.11,-215.01 1321.73,-220.35 1343.71,-225.12"/>
<polygon fill="#63b8ff" stroke="#63b8ff" points="1342.94,-228.53 1353.45,-227.23 1344.42,-221.69 1342.94,-228.53"/>
</a>
</g>
</g>
<!-- Node51 -->
<g id="Node000051" class="node">
<title>Node51</title>
<g id="a_Node000051"><a xlink:href="memcontrol_8h.html#a807e2e465f622e21ef3fd6fefbf9a32b" target="_top" xlink:title=" ">
<polygon fill="white" stroke="#666666" points="1453.75,-96 1354.5,-96 1354.5,-76 1453.75,-76 1453.75,-96"/>
<text xml:space="preserve" text-anchor="middle" x="1404.12" y="-82.5" font-family="Helvetica,sans-Serif" font-size="10.00">PageMemcgKmem</text>
</a>
</g>
</g>
<!-- Node13&#45;&gt;Node51 -->
<g id="edge30_Node000013_Node000051" class="edge">
<title>Node13&#45;&gt;Node51</title>
<g id="a_edge30_Node000013_Node000051"><a xlink:title=" ">
<path fill="none" stroke="#63b8ff" d="M1235.89,-189.74C1250.96,-171.14 1285.41,-131.74 1323,-110 1329.59,-106.19 1336.84,-102.93 1344.2,-100.16"/>
<polygon fill="#63b8ff" stroke="#63b8ff" points="1345.25,-103.5 1353.57,-96.94 1342.98,-96.88 1345.25,-103.5"/>
</a>
</g>
</g>
<!-- Node53 -->
<g id="Node000053" class="node">
<title>Node53</title>
<g id="a_Node000053"><a xlink:href="page__alloc_8c.html#ab2a1a82010f5d39d5eb57ee9475e7783" target="_top" xlink:title=" ">
<polygon fill="white" stroke="#666666" points="1447.38,-58 1360.88,-58 1360.88,-38 1447.38,-38 1447.38,-58"/>
<text xml:space="preserve" text-anchor="middle" x="1404.12" y="-44.5" font-family="Helvetica,sans-Serif" font-size="10.00">pgalloc_tag_sub</text>
</a>
</g>
</g>
<!-- Node13&#45;&gt;Node53 -->
<g id="edge32_Node000013_Node000053" class="edge">
<title>Node13&#45;&gt;Node53</title>
<g id="a_edge32_Node000013_Node000053"><a xlink:title=" ">
<path fill="none" stroke="#63b8ff" d="M1232.1,-189.76C1243.06,-164.57 1274.92,-99.29 1323,-67 1330.93,-61.67 1340.19,-57.83 1349.53,-55.06"/>
<polygon fill="#63b8ff" stroke="#63b8ff" points="1350.17,-58.51 1359,-52.66 1348.44,-51.73 1350.17,-58.51"/>
</a>
</g>
</g>
<!-- Node55 -->
<g id="Node000055" class="node">
<title>Node55</title>
<g id="a_Node000055"><a xlink:href="page__alloc_8c.html#ae6fad044d5bf5629e39cc8bfc80464f4" target="_top" xlink:title=" ">
<polygon fill="white" stroke="#666666" points="1470.62,-20 1337.62,-20 1337.62,0 1470.62,0 1470.62,-20"/>
<text xml:space="preserve" text-anchor="middle" x="1404.12" y="-6.5" font-family="Helvetica,sans-Serif" font-size="10.00">should_skip_kasan_poison</text>
</a>
</g>
</g>
<!-- Node13&#45;&gt;Node55 -->
<g id="edge34_Node000013_Node000055" class="edge">
<title>Node13&#45;&gt;Node55</title>
<g id="a_edge34_Node000013_Node000055"><a xlink:title=" ">
<path fill="none" stroke="#63b8ff" d="M1230.48,-189.59C1238.55,-159.54 1266.12,-72.06 1323,-29 1324.57,-27.81 1326.2,-26.7 1327.88,-25.65"/>
<polygon fill="#63b8ff" stroke="#63b8ff" points="1329.4,-28.81 1336.65,-21.08 1326.17,-22.6 1329.4,-28.81"/>
</a>
</g>
</g>
<!-- Node15 -->
<g id="Node000015" class="node">
<title>Node15</title>
<g id="a_Node000015"><a xlink:href="memcontrol_8h.html#a04ef2d83183f47244b38ceae9cc3e575" target="_top" xlink:title=" ">
<polygon fill="white" stroke="#666666" points="1625,-336 1543,-336 1543,-316 1625,-316 1625,-336"/>
<text xml:space="preserve" text-anchor="middle" x="1584" y="-322.5" font-family="Helvetica,sans-Serif" font-size="10.00">obj_cgroup_put</text>
</a>
</g>
</g>
<!-- Node14&#45;&gt;Node15 -->
<g id="edge15_Node000014_Node000015" class="edge">
<title>Node14&#45;&gt;Node15</title>
<g id="a_edge15_Node000014_Node000015"><a xlink:title=" ">
<path fill="none" stroke="#63b8ff" d="M1449.66,-292.41C1461.26,-295.17 1473.73,-298.16 1485.25,-301 1500.29,-304.71 1516.61,-308.84 1531.53,-312.66"/>
<polygon fill="#63b8ff" stroke="#63b8ff" points="1530.59,-316.03 1541.15,-315.13 1532.33,-309.25 1530.59,-316.03"/>
</a>
</g>
</g>
<!-- Node16 -->
<g id="Node000016" class="node">
<title>Node16</title>
<g id="a_Node000016"><a xlink:href="memcontrol_8c.html#aa17e91b4a1c02f0a15aa2c5a7282c948" target="_top" xlink:title=" ">
<polygon fill="#fff0f0" stroke="red" points="1638.12,-298 1529.88,-298 1529.88,-266 1638.12,-266 1638.12,-298"/>
<text xml:space="preserve" text-anchor="start" x="1537.88" y="-284.5" font-family="Helvetica,sans-Serif" font-size="10.00">obj_cgroup_uncharge</text>
<text xml:space="preserve" text-anchor="middle" x="1584" y="-272.5" font-family="Helvetica,sans-Serif" font-size="10.00">_pages</text>
</a>
</g>
</g>
<!-- Node14&#45;&gt;Node16 -->
<g id="edge16_Node000014_Node000016" class="edge">
<title>Node14&#45;&gt;Node16</title>
<g id="a_edge16_Node000014_Node000016"><a xlink:title=" ">
<path fill="none" stroke="#63b8ff" d="M1485.74,-282C1496.6,-282 1507.64,-282 1518.19,-282"/>
<polygon fill="#63b8ff" stroke="#63b8ff" points="1517.89,-285.5 1527.89,-282 1517.89,-278.5 1517.89,-285.5"/>
</a>
</g>
</g>
<!-- Node42 -->
<g id="Node000042" class="node">
<title>Node42</title>
<g id="a_Node000042"><a xlink:href="memcontrol_8c.html#a2f41f84826ed7bf3ec39b34e70491258" target="_top" xlink:title=" ">
<polygon fill="#fff0f0" stroke="red" points="1616.75,-374 1551.25,-374 1551.25,-354 1616.75,-354 1616.75,-374"/>
<text xml:space="preserve" text-anchor="middle" x="1584" y="-360.5" font-family="Helvetica,sans-Serif" font-size="10.00">page_objcg</text>
</a>
</g>
</g>
<!-- Node14&#45;&gt;Node42 -->
<g id="edge19_Node000014_Node000042" class="edge">
<title>Node14&#45;&gt;Node42</title>
<g id="a_edge19_Node000014_Node000042"><a xlink:title=" ">
<path fill="none" stroke="#63b8ff" d="M1467.58,-292.49C1473.78,-294.79 1479.8,-297.59 1485.25,-301 1506.67,-314.4 1500.28,-330.91 1521.25,-345 1527.05,-348.9 1533.69,-352.03 1540.42,-354.53"/>
<polygon fill="#63b8ff" stroke="#63b8ff" points="1538.91,-357.72 1549.5,-357.49 1541.08,-351.06 1538.91,-357.72"/>
</a>
</g>
</g>
<!-- Node17 -->
<g id="Node000017" class="node">
<title>Node17</title>
<g id="a_Node000017"><a xlink:href="memcontrol_8c.html#a5f7ef4dd5f9919f8fd82c53d1445f5fb" target="_top" xlink:title=" ">
<polygon fill="#fff0f0" stroke="red" points="1810.5,-311 1682.75,-311 1682.75,-291 1810.5,-291 1810.5,-311"/>
<text xml:space="preserve" text-anchor="middle" x="1746.62" y="-297.5" font-family="Helvetica,sans-Serif" font-size="10.00">account_kmem_nmi_safe</text>
</a>
</g>
</g>
<!-- Node16&#45;&gt;Node17 -->
<g id="edge17_Node000016_Node000017" class="edge">
<title>Node16&#45;&gt;Node17</title>
<g id="a_edge17_Node000016_Node000017"><a xlink:title=" ">
<path fill="none" stroke="#63b8ff" d="M1638.49,-288.33C1648.92,-289.56 1660.03,-290.88 1671,-292.17"/>
<polygon fill="#63b8ff" stroke="#63b8ff" points="1670.5,-295.64 1680.84,-293.34 1671.32,-288.69 1670.5,-295.64"/>
</a>
</g>
</g>
<!-- Node29 -->
<g id="Node000029" class="node">
<title>Node29</title>
<g id="a_Node000029"><a xlink:href="cgroup__refcnt_8h.html#a06a91a2613e85e6b114f4fc2ddd5dbc1" target="_top" xlink:title=" ">
<polygon fill="white" stroke="#666666" points="1771.88,-273 1721.38,-273 1721.38,-253 1771.88,-253 1771.88,-273"/>
<text xml:space="preserve" text-anchor="middle" x="1746.62" y="-259.5" font-family="Helvetica,sans-Serif" font-size="10.00">css_put</text>
</a>
</g>
</g>
<!-- Node16&#45;&gt;Node29 -->
<g id="edge18_Node000016_Node000029" class="edge">
<title>Node16&#45;&gt;Node29</title>
<g id="a_edge18_Node000016_Node000029"><a xlink:title=" ">
<path fill="none" stroke="#63b8ff" d="M1638.49,-275.67C1661.94,-272.9 1688.84,-269.72 1709.82,-267.24"/>
<polygon fill="#63b8ff" stroke="#63b8ff" points="1710.09,-270.73 1719.61,-266.08 1709.27,-263.78 1710.09,-270.73"/>
</a>
</g>
</g>
<!-- Node44 -->
<g id="Node000044" class="node">
<title>Node44</title>
<g id="a_Node000044"><a xlink:href="page__alloc_8c.html#ac57a6ff65adedc8583131dd8befd5ebc" target="_top" xlink:title=" ">
<polygon fill="white" stroke="#666666" points="1613,-172 1555,-172 1555,-152 1613,-152 1613,-172"/>
<text xml:space="preserve" text-anchor="middle" x="1584" y="-158.5" font-family="Helvetica,sans-Serif" font-size="10.00">bad_page</text>
</a>
</g>
</g>
<!-- Node43&#45;&gt;Node44 -->
<g id="edge21_Node000043_Node000044" class="edge">
<title>Node43&#45;&gt;Node44</title>
<g id="a_edge21_Node000043_Node000044"><a xlink:title=" ">
<path fill="none" stroke="#63b8ff" d="M1450.47,-190.31C1479.2,-184.17 1515.99,-176.31 1543.52,-170.43"/>
<polygon fill="#63b8ff" stroke="#63b8ff" points="1544.17,-173.87 1553.22,-168.36 1542.71,-167.03 1544.17,-173.87"/>
</a>
</g>
</g>
<!-- Node45 -->
<g id="Node000045" class="node">
<title>Node45</title>
<g id="a_Node000045"><a xlink:href="page__alloc_8c.html#af0177eb3e33bbfb996b6cb02453ffee7" target="_top" xlink:title=" ">
<polygon fill="white" stroke="#666666" points="1630.25,-248 1537.75,-248 1537.75,-228 1630.25,-228 1630.25,-248"/>
<text xml:space="preserve" text-anchor="middle" x="1584" y="-234.5" font-family="Helvetica,sans-Serif" font-size="10.00">page_bad_reason</text>
</a>
</g>
</g>
<!-- Node43&#45;&gt;Node45 -->
<g id="edge22_Node000043_Node000045" class="edge">
<title>Node43&#45;&gt;Node45</title>
<g id="a_edge22_Node000043_Node000045"><a xlink:title=" ">
<path fill="none" stroke="#63b8ff" d="M1450.47,-209.69C1473.59,-214.63 1501.93,-220.68 1526.46,-225.92"/>
<polygon fill="#63b8ff" stroke="#63b8ff" points="1525.44,-229.28 1535.95,-227.95 1526.9,-222.44 1525.44,-229.28"/>
</a>
</g>
</g>
<!-- Node46 -->
<g id="Node000046" class="node">
<title>Node46</title>
<g id="a_Node000046"><a xlink:href="page__alloc_8c.html#a2198a7aec00a3766a0b33712f042a5a9" target="_top" xlink:title=" ">
<polygon fill="white" stroke="#666666" points="1638.5,-210 1529.5,-210 1529.5,-190 1638.5,-190 1638.5,-210"/>
<text xml:space="preserve" text-anchor="middle" x="1584" y="-196.5" font-family="Helvetica,sans-Serif" font-size="10.00">page_expected_state</text>
</a>
</g>
</g>
<!-- Node43&#45;&gt;Node46 -->
<g id="edge23_Node000043_Node000046" class="edge">
<title>Node43&#45;&gt;Node46</title>
<g id="a_edge23_Node000043_Node000046"><a xlink:title=" ">
<path fill="none" stroke="#63b8ff" d="M1450.47,-200C1470.89,-200 1495.39,-200 1517.74,-200"/>
<polygon fill="#63b8ff" stroke="#63b8ff" points="1517.68,-203.5 1527.68,-200 1517.68,-196.5 1517.68,-203.5"/>
</a>
</g>
</g>
<!-- Node47&#45;&gt;Node44 -->
<g id="edge25_Node000047_Node000044" class="edge">
<title>Node47&#45;&gt;Node44</title>
<g id="a_edge25_Node000047_Node000044"><a xlink:title=" ">
<path fill="none" stroke="#63b8ff" d="M1461.41,-162C1488.17,-162 1519.52,-162 1543.68,-162"/>
<polygon fill="#63b8ff" stroke="#63b8ff" points="1543.4,-165.5 1553.4,-162 1543.4,-158.5 1543.4,-165.5"/>
</a>
</g>
</g>
<!-- Node47&#45;&gt;Node48 -->
<g id="edge26_Node000047_Node000048" class="edge">
<title>Node47&#45;&gt;Node48</title>
<g id="a_edge26_Node000047_Node000048"><a xlink:title=" ">
<path fill="none" stroke="#63b8ff" d="M1454.2,-151.52C1475.49,-146.97 1500.62,-141.6 1523.01,-136.82"/>
<polygon fill="#63b8ff" stroke="#63b8ff" points="1523.56,-140.28 1532.6,-134.77 1522.09,-133.43 1523.56,-140.28"/>
</a>
</g>
</g>
<!-- Node52 -->
<g id="Node000052" class="node">
<title>Node52</title>
<g id="a_Node000052"><a xlink:href="memcontrol_8h.html#aa108014d5527134a8418446c80e9ed12" target="_top" xlink:title=" ">
<polygon fill="white" stroke="#666666" points="1635.88,-96 1532.12,-96 1532.12,-76 1635.88,-76 1635.88,-96"/>
<text xml:space="preserve" text-anchor="middle" x="1584" y="-82.5" font-family="Helvetica,sans-Serif" font-size="10.00">folio_memcg_kmem</text>
</a>
</g>
</g>
<!-- Node51&#45;&gt;Node52 -->
<g id="edge31_Node000051_Node000052" class="edge">
<title>Node51&#45;&gt;Node52</title>
<g id="a_edge31_Node000051_Node000052"><a xlink:title=" ">
<path fill="none" stroke="#63b8ff" d="M1454.2,-86C1474.69,-86 1498.73,-86 1520.46,-86"/>
<polygon fill="#63b8ff" stroke="#63b8ff" points="1520.4,-89.5 1530.4,-86 1520.4,-82.5 1520.4,-89.5"/>
</a>
</g>
</g>
<!-- Node54 -->
<g id="Node000054" class="node">
<title>Node54</title>
<g id="a_Node000054"><a xlink:href="page__alloc_8c.html#a318e83becfcccfe63b82381509b64d70" target="_top" xlink:title=" ">
<polygon fill="white" stroke="#666666" points="1632.5,-58 1535.5,-58 1535.5,-38 1632.5,-38 1632.5,-58"/>
<text xml:space="preserve" text-anchor="middle" x="1584" y="-44.5" font-family="Helvetica,sans-Serif" font-size="10.00">__pgalloc_tag_sub</text>
</a>
</g>
</g>
<!-- Node53&#45;&gt;Node54 -->
<g id="edge33_Node000053_Node000054" class="edge">
<title>Node53&#45;&gt;Node54</title>
<g id="a_edge33_Node000053_Node000054"><a xlink:title=" ">
<path fill="none" stroke="#63b8ff" d="M1447.73,-48C1470.44,-48 1498.75,-48 1523.59,-48"/>
<polygon fill="#63b8ff" stroke="#63b8ff" points="1523.59,-51.5 1533.59,-48 1523.59,-44.5 1523.59,-51.5"/>
</a>
</g>
</g>
<!-- Node56 -->
<g id="Node000056" class="node">
<title>Node56</title>
<g id="a_Node000056"><a xlink:href="page__alloc_8c.html#afa5e322943376c3095e0c61757022e0c" target="_top" xlink:title=" ">
<polygon fill="white" stroke="#666666" points="1644.88,-20 1523.12,-20 1523.12,0 1644.88,0 1644.88,-20"/>
<text xml:space="preserve" text-anchor="middle" x="1584" y="-6.5" font-family="Helvetica,sans-Serif" font-size="10.00">deferred_pages_enabled</text>
</a>
</g>
</g>
<!-- Node55&#45;&gt;Node56 -->
<g id="edge35_Node000055_Node000056" class="edge">
<title>Node55&#45;&gt;Node56</title>
<g id="a_edge35_Node000055_Node000056"><a xlink:title=" ">
<path fill="none" stroke="#63b8ff" d="M1471.11,-10C1484.18,-10 1497.97,-10 1511.23,-10"/>
<polygon fill="#63b8ff" stroke="#63b8ff" points="1511.2,-13.5 1521.2,-10 1511.2,-6.5 1511.2,-13.5"/>
</a>
</g>
</g>
<!-- Node57&#45;&gt;Node58 -->
<g id="edge37_Node000057_Node000058" class="edge">
<title>Node57&#45;&gt;Node58</title>
<g id="a_edge37_Node000057_Node000058"><a xlink:title=" ">
<path fill="none" stroke="#63b8ff" d="M1267.2,-469.47C1289.8,-464.57 1318.62,-458.32 1343.9,-452.84"/>
<polygon fill="#63b8ff" stroke="#63b8ff" points="1344.35,-456.33 1353.38,-450.79 1342.87,-449.48 1344.35,-456.33"/>
</a>
</g>
</g>
<!-- Node59 -->
<g id="Node000059" class="node">
<title>Node59</title>
<g id="a_Node000059"><a xlink:href="page__alloc_8c.html#aeced7ce0a212b34722a4b8c2c4dd0d20" target="_top" xlink:title=" ">
<polygon fill="white" stroke="#666666" points="1450,-488 1358.25,-488 1358.25,-468 1450,-468 1450,-488"/>
<text xml:space="preserve" text-anchor="middle" x="1404.12" y="-474.5" font-family="Helvetica,sans-Serif" font-size="10.00">split_large_buddy</text>
</a>
</g>
</g>
<!-- Node57&#45;&gt;Node59 -->
<g id="edge38_Node000057_Node000059" class="edge">
<title>Node57&#45;&gt;Node59</title>
<g id="a_edge38_Node000057_Node000059"><a xlink:title=" ">
<path fill="none" stroke="#63b8ff" d="M1267.2,-478C1290.68,-478 1320.87,-478 1346.84,-478"/>
<polygon fill="#63b8ff" stroke="#63b8ff" points="1346.54,-481.5 1356.54,-478 1346.54,-474.5 1346.54,-481.5"/>
</a>
</g>
</g>
<!-- Node60 -->
<g id="Node000060" class="node">
<title>Node60</title>
<g id="a_Node000060"><a xlink:href="page__alloc_8c.html#a2c5ec18ed8682ac64fd76cd585baeeb6" target="_top" xlink:title=" ">
<polygon fill="#fff0f0" stroke="red" points="1629.12,-488 1538.88,-488 1538.88,-468 1629.12,-468 1629.12,-488"/>
<text xml:space="preserve" text-anchor="middle" x="1584" y="-474.5" font-family="Helvetica,sans-Serif" font-size="10.00">__free_one_page</text>
</a>
</g>
</g>
<!-- Node59&#45;&gt;Node60 -->
<g id="edge39_Node000059_Node000060" class="edge">
<title>Node59&#45;&gt;Node60</title>
<g id="a_edge39_Node000059_Node000060"><a xlink:title=" ">
<path fill="none" stroke="#63b8ff" d="M1450.47,-478C1473.84,-478 1502.54,-478 1527.26,-478"/>
<polygon fill="#63b8ff" stroke="#63b8ff" points="1527.15,-481.5 1537.15,-478 1527.15,-474.5 1527.15,-481.5"/>
</a>
</g>
</g>
<!-- Node59&#45;&gt;Node79 -->
<g id="edge43_Node000059_Node000079" class="edge">
<title>Node59&#45;&gt;Node79</title>
<g id="a_edge43_Node000059_Node000079"><a xlink:title=" ">
<path fill="none" stroke="#63b8ff" d="M1450.41,-468.84C1471.8,-464.97 1497.73,-460.91 1521.25,-459 1571.15,-454.94 1627.49,-454.96 1671.24,-455.98"/>
<polygon fill="#63b8ff" stroke="#63b8ff" points="1671.05,-459.48 1681.14,-456.24 1671.23,-452.48 1671.05,-459.48"/>
</a>
</g>
</g>
<!-- Node60&#45;&gt;Node79 -->
<g id="edge40_Node000060_Node000079" class="edge">
<title>Node60&#45;&gt;Node79</title>
<g id="a_edge40_Node000060_Node000079"><a xlink:title=" ">
<path fill="none" stroke="#63b8ff" d="M1629.32,-472.76C1642.29,-471.22 1656.83,-469.5 1671.13,-467.81"/>
<polygon fill="#63b8ff" stroke="#63b8ff" points="1671.49,-471.29 1681.01,-466.64 1670.67,-464.34 1671.49,-471.29"/>
</a>
</g>
</g>
<!-- Node80 -->
<g id="Node000080" class="node">
<title>Node80</title>
<g id="a_Node000080"><a xlink:href="page__alloc_8c.html#ab6c39dbc0b5dc6be540cc88326ca382e" target="_top" xlink:title=" ">
<polygon fill="white" stroke="#666666" points="1984,-469 1846.5,-469 1846.5,-449 1984,-449 1984,-469"/>
<text xml:space="preserve" text-anchor="middle" x="1915.25" y="-455.5" font-family="Helvetica,sans-Serif" font-size="10.00">__get_pfnblock_flags_mask</text>
</a>
</g>
</g>
<!-- Node79&#45;&gt;Node80 -->
<g id="edge41_Node000079_Node000080" class="edge">
<title>Node79&#45;&gt;Node80</title>
<g id="a_edge41_Node000079_Node000080"><a xlink:title=" ">
<path fill="none" stroke="#63b8ff" d="M1810.62,-459C1818.51,-459 1826.66,-459 1834.77,-459"/>
<polygon fill="#63b8ff" stroke="#63b8ff" points="1834.64,-462.5 1844.64,-459 1834.64,-455.5 1834.64,-462.5"/>
</a>
</g>
</g>
<!-- Node69 -->
<g id="Node000069" class="node">
<title>Node69</title>
<g id="a_Node000069"><a xlink:href="page__alloc_8c.html#ad9939d9e4165040d29c034c722e1d148" target="_top" xlink:title=" ">
<polygon fill="#fff0f0" stroke="red" points="2126,-475 2020,-475 2020,-443 2126,-443 2126,-475"/>
<text xml:space="preserve" text-anchor="start" x="2028" y="-461.5" font-family="Helvetica,sans-Serif" font-size="10.00">get_pfnblock_bitmap</text>
<text xml:space="preserve" text-anchor="middle" x="2073" y="-449.5" font-family="Helvetica,sans-Serif" font-size="10.00">_bitidx</text>
</a>
</g>
</g>
<!-- Node80&#45;&gt;Node69 -->
<g id="edge42_Node000080_Node000069" class="edge">
<title>Node80&#45;&gt;Node69</title>
<g id="a_edge42_Node000080_Node000069"><a xlink:title=" ">
<path fill="none" stroke="#63b8ff" d="M1984.11,-459C1992.15,-459 2000.34,-459 2008.32,-459"/>
<polygon fill="#63b8ff" stroke="#63b8ff" points="2008.31,-462.5 2018.31,-459 2008.31,-455.5 2008.31,-462.5"/>
</a>
</g>
</g>
<!-- Node85&#45;&gt;Node2 -->
<g id="edge51_Node000085_Node000002" class="edge">
<title>Node85&#45;&gt;Node2</title>
<g id="a_edge51_Node000085_Node000002"><a xlink:title=" ">
<path fill="none" stroke="#63b8ff" d="M1073.59,-621.16C1087.36,-643.32 1123.15,-696.26 1166.75,-725 1168.83,-726.37 1171.03,-727.65 1173.29,-728.85"/>
<polygon fill="#63b8ff" stroke="#63b8ff" points="1171.61,-731.93 1182.16,-732.91 1174.53,-725.57 1171.61,-731.93"/>
</a>
</g>
</g>
<!-- Node85&#45;&gt;Node5 -->
<g id="edge57_Node000085_Node000005" class="edge">
<title>Node85&#45;&gt;Node5</title>
<g id="a_edge57_Node000085_Node000005"><a xlink:title=" ">
<path fill="none" stroke="#63b8ff" d="M1001.96,-611C942.79,-611 852.11,-611 773.38,-611 502.75,-611 502.75,-611 502.75,-611 413.85,-611 310.98,-611 246.79,-611"/>
<polygon fill="#63b8ff" stroke="#63b8ff" points="247.17,-607.5 237.17,-611 247.17,-614.5 247.17,-607.5"/>
</a>
</g>
</g>
<!-- Node86 -->
<g id="Node000086" class="node">
<title>Node86</title>
<g id="a_Node000086"><a xlink:href="page__alloc_8c.html#ad9f16011f5a6231ed7570f3eae7d9da1" target="_top" xlink:title=" ">
<polygon fill="white" stroke="#666666" points="1455.62,-526 1352.62,-526 1352.62,-506 1455.62,-506 1455.62,-526"/>
<text xml:space="preserve" text-anchor="middle" x="1404.12" y="-512.5" font-family="Helvetica,sans-Serif" font-size="10.00">free_pcppages_bulk</text>
</a>
</g>
</g>
<!-- Node85&#45;&gt;Node86 -->
<g id="edge47_Node000085_Node000086" class="edge">
<title>Node85&#45;&gt;Node86</title>
<g id="a_edge47_Node000085_Node000086"><a xlink:title=" ">
<path fill="none" stroke="#63b8ff" d="M1076.99,-600.59C1093.37,-583.4 1128.87,-549.56 1166.75,-535 1222.96,-513.4 1292.11,-510.28 1341.06,-511.57"/>
<polygon fill="#63b8ff" stroke="#63b8ff" points="1340.8,-515.07 1350.91,-511.91 1341.03,-508.07 1340.8,-515.07"/>
</a>
</g>
</g>
<!-- Node88 -->
<g id="Node000088" class="node">
<title>Node88</title>
<g id="a_Node000088"><a xlink:href="vmscan_8c.html#a0090daa5c889a73bdc40af1a570382e1" target="_top" xlink:title=" ">
<polygon fill="white" stroke="#666666" points="1287,-564 1166.75,-564 1166.75,-544 1287,-544 1287,-564"/>
<text xml:space="preserve" text-anchor="middle" x="1226.88" y="-550.5" font-family="Helvetica,sans-Serif" font-size="10.00">kswapd_clear_hopeless</text>
</a>
</g>
</g>
<!-- Node85&#45;&gt;Node88 -->
<g id="edge52_Node000085_Node000088" class="edge">
<title>Node85&#45;&gt;Node88</title>
<g id="a_edge52_Node000085_Node000088"><a xlink:title=" ">
<path fill="none" stroke="#63b8ff" d="M1093.48,-600.61C1113.42,-592.74 1141.69,-581.82 1166.75,-573 1171.51,-571.32 1176.51,-569.63 1181.5,-567.97"/>
<polygon fill="#63b8ff" stroke="#63b8ff" points="1182.46,-571.34 1190.87,-564.9 1180.28,-564.69 1182.46,-571.34"/>
</a>
</g>
</g>
<!-- Node89 -->
<g id="Node000089" class="node">
<title>Node89</title>
<g id="a_Node000089"><a xlink:href="vmscan_8c.html#acf9ceaa4f63e5699e78a6f9ded18245e" target="_top" xlink:title=" ">
<polygon fill="white" stroke="#666666" points="1284.75,-678 1169,-678 1169,-658 1284.75,-658 1284.75,-678"/>
<text xml:space="preserve" text-anchor="middle" x="1226.88" y="-664.5" font-family="Helvetica,sans-Serif" font-size="10.00">kswapd_test_hopeless</text>
</a>
</g>
</g>
<!-- Node85&#45;&gt;Node89 -->
<g id="edge53_Node000085_Node000089" class="edge">
<title>Node85&#45;&gt;Node89</title>
<g id="a_edge53_Node000085_Node000089"><a xlink:title=" ">
<path fill="none" stroke="#63b8ff" d="M1093.48,-621.39C1113.42,-629.26 1141.69,-640.18 1166.75,-649 1171.51,-650.68 1176.51,-652.37 1181.5,-654.03"/>
<polygon fill="#63b8ff" stroke="#63b8ff" points="1180.28,-657.31 1190.87,-657.1 1182.46,-650.66 1180.28,-657.31"/>
</a>
</g>
</g>
<!-- Node90 -->
<g id="Node000090" class="node">
<title>Node90</title>
<g id="a_Node000090"><a xlink:href="page__alloc_8c.html#aae35af57ba4da1e37bcb913c08fc16e9" target="_top" xlink:title=" ">
<polygon fill="white" stroke="#666666" points="1260.38,-640 1193.38,-640 1193.38,-620 1260.38,-620 1260.38,-640"/>
<text xml:space="preserve" text-anchor="middle" x="1226.88" y="-626.5" font-family="Helvetica,sans-Serif" font-size="10.00">nr_pcp_free</text>
</a>
</g>
</g>
<!-- Node85&#45;&gt;Node90 -->
<g id="edge54_Node000085_Node000090" class="edge">
<title>Node85&#45;&gt;Node90</title>
<g id="a_edge54_Node000085_Node000090"><a xlink:title=" ">
<path fill="none" stroke="#63b8ff" d="M1131,-618.62C1148.18,-620.68 1166.38,-622.86 1182.19,-624.76"/>
<polygon fill="#63b8ff" stroke="#63b8ff" points="1181.39,-628.19 1191.74,-625.9 1182.22,-621.24 1181.39,-628.19"/>
</a>
</g>
</g>
<!-- Node91 -->
<g id="Node000091" class="node">
<title>Node91</title>
<g id="a_Node000091"><a xlink:href="page__alloc_8c.html#a52de4f0fca1b855ade8ae82ec20095be" target="_top" xlink:title=" ">
<polygon fill="white" stroke="#666666" points="1261.12,-602 1192.62,-602 1192.62,-582 1261.12,-582 1261.12,-602"/>
<text xml:space="preserve" text-anchor="middle" x="1226.88" y="-588.5" font-family="Helvetica,sans-Serif" font-size="10.00">nr_pcp_high</text>
</a>
</g>
</g>
<!-- Node85&#45;&gt;Node91 -->
<g id="edge55_Node000085_Node000091" class="edge">
<title>Node85&#45;&gt;Node91</title>
<g id="a_edge55_Node000085_Node000091"><a xlink:title=" ">
<path fill="none" stroke="#63b8ff" d="M1131,-603.38C1147.74,-601.37 1165.44,-599.25 1180.97,-597.39"/>
<polygon fill="#63b8ff" stroke="#63b8ff" points="1181.35,-600.87 1190.86,-596.2 1180.52,-593.92 1181.35,-600.87"/>
</a>
</g>
</g>
<!-- Node92 -->
<g id="Node000092" class="node">
<title>Node92</title>
<g id="a_Node000092"><a xlink:href="page__alloc_8c.html#a04b8d71969d3e33de7bc1cf8de3831ca" target="_top" xlink:title=" ">
<polygon fill="white" stroke="#666666" points="1269.38,-716 1184.38,-716 1184.38,-696 1269.38,-696 1269.38,-716"/>
<text xml:space="preserve" text-anchor="middle" x="1226.88" y="-702.5" font-family="Helvetica,sans-Serif" font-size="10.00">order_to_pindex</text>
</a>
</g>
</g>
<!-- Node85&#45;&gt;Node92 -->
<g id="edge56_Node000085_Node000092" class="edge">
<title>Node85&#45;&gt;Node92</title>
<g id="a_edge56_Node000085_Node000092"><a xlink:title=" ">
<path fill="none" stroke="#63b8ff" d="M1078.24,-621.26C1095.58,-637.32 1131.37,-668.48 1166.75,-687 1169.8,-688.6 1173.02,-690.09 1176.3,-691.49"/>
<polygon fill="#63b8ff" stroke="#63b8ff" points="1174.93,-694.71 1185.52,-695.05 1177.45,-688.18 1174.93,-694.71"/>
</a>
</g>
</g>
<!-- Node86&#45;&gt;Node60 -->
<g id="edge48_Node000086_Node000060" class="edge">
<title>Node86&#45;&gt;Node60</title>
<g id="a_edge48_Node000086_Node000060"><a xlink:title=" ">
<path fill="none" stroke="#63b8ff" d="M1454.2,-505.52C1476.91,-500.66 1504,-494.88 1527.45,-489.87"/>
<polygon fill="#63b8ff" stroke="#63b8ff" points="1528.12,-493.3 1537.16,-487.79 1526.65,-486.46 1528.12,-493.3"/>
</a>
</g>
</g>
<!-- Node86&#45;&gt;Node79 -->
<g id="edge49_Node000086_Node000079" class="edge">
<title>Node86&#45;&gt;Node79</title>
<g id="a_edge49_Node000086_Node000079"><a xlink:title=" ">
<path fill="none" stroke="#63b8ff" d="M1455.74,-516.23C1505.07,-515.48 1581.91,-511.68 1646.75,-497 1669.69,-491.81 1694.39,-482.32 1713.36,-474.12"/>
<polygon fill="#63b8ff" stroke="#63b8ff" points="1714.71,-477.35 1722.43,-470.1 1711.87,-470.95 1714.71,-477.35"/>
</a>
</g>
</g>
<!-- Node87 -->
<g id="Node000087" class="node">
<title>Node87</title>
<g id="a_Node000087"><a xlink:href="page__alloc_8c.html#ab42a4e857cc0ac16de48b59498ec3a4b" target="_top" xlink:title=" ">
<polygon fill="white" stroke="#666666" points="1626.5,-564 1541.5,-564 1541.5,-544 1626.5,-544 1626.5,-564"/>
<text xml:space="preserve" text-anchor="middle" x="1584" y="-550.5" font-family="Helvetica,sans-Serif" font-size="10.00">pindex_to_order</text>
</a>
</g>
</g>
<!-- Node86&#45;&gt;Node87 -->
<g id="edge50_Node000086_Node000087" class="edge">
<title>Node86&#45;&gt;Node87</title>
<g id="a_edge50_Node000086_Node000087"><a xlink:title=" ">
<path fill="none" stroke="#63b8ff" d="M1454.2,-526.48C1477.73,-531.51 1505.94,-537.54 1529.96,-542.67"/>
<polygon fill="#63b8ff" stroke="#63b8ff" points="1529.03,-546.05 1539.54,-544.72 1530.49,-539.2 1529.03,-546.05"/>
</a>
</g>
</g>
</g>
</svg>
