<?xml version="1.0" encoding="UTF-8" standalone="no"?>
<!DOCTYPE svg PUBLIC "-//W3C//DTD SVG 1.1//EN"
 "http://www.w3.org/Graphics/SVG/1.1/DTD/svg11.dtd">
<!-- Generated by graphviz version 15.1.0 (20260618.0150)
 -->
<!-- Title: check_move_unevictable_folios Pages: 1 -->
<svg width="874pt" height="193pt"
 viewBox="0.00 0.00 874.00 193.00" xmlns="http://www.w3.org/2000/svg" xmlns:xlink="http://www.w3.org/1999/xlink">
<g id="graph0" class="graph" transform="scale(1 1) rotate(0) translate(4 188.55)">
<title>check_move_unevictable_folios</title>
<!-- Node1 -->
<g id="Node000001" class="node">
<title>Node1</title>
<g id="a_Node000001"><a xlink:title=" ">
<polygon fill="#999999" stroke="#666666" points="126.25,-57.55 0,-57.55 0,-25.55 126.25,-25.55 126.25,-57.55"/>
<text xml:space="preserve" text-anchor="start" x="8" y="-44.05" font-family="Helvetica,sans-Serif" font-size="10.00">check_move_unevictable</text>
<text xml:space="preserve" text-anchor="middle" x="63.12" y="-32.05" font-family="Helvetica,sans-Serif" font-size="10.00">_folios</text>
</a>
</g>
</g>
<!-- Node2 -->
<g id="Node000002" class="node">
<title>Node2</title>
<g id="a_Node000002"><a xlink:href="memcontrol_8h.html#ab5b8902a8be967b86cf2fe62acf5925f" target="_top" xlink:title=" ">
<polygon fill="white" stroke="#666666" points="275,-70.55 162.25,-70.55 162.25,-50.55 275,-50.55 275,-70.55"/>
<text xml:space="preserve" text-anchor="middle" x="218.62" y="-57.05" font-family="Helvetica,sans-Serif" font-size="10.00">folio_lruvec_relock_irq</text>
</a>
</g>
</g>
<!-- Node1&#45;&gt;Node2 -->
<g id="edge1_Node000001_Node000002" class="edge">
<title>Node1&#45;&gt;Node2</title>
<g id="a_edge1_Node000001_Node000002"><a xlink:title=" ">
<path fill="none" stroke="#63b8ff" d="M126.56,-49.28C134.57,-50.27 142.8,-51.29 150.87,-52.29"/>
<polygon fill="#63b8ff" stroke="#63b8ff" points="150.3,-55.75 160.65,-53.5 151.16,-48.8 150.3,-55.75"/>
</a>
</g>
</g>
<!-- Node16 -->
<g id="Node000016" class="node">
<title>Node16</title>
<g id="a_Node000016"><a xlink:href="memcontrol_8h.html#a5fb31a477a244c25582b16cd1e248b97" target="_top" xlink:title=" ">
<polygon fill="white" stroke="#666666" points="429,-32.55 311,-32.55 311,-12.55 429,-12.55 429,-32.55"/>
<text xml:space="preserve" text-anchor="middle" x="370" y="-19.05" font-family="Helvetica,sans-Serif" font-size="10.00">unlock_page_lruvec_irq</text>
</a>
</g>
</g>
<!-- Node1&#45;&gt;Node16 -->
<g id="edge19_Node000001_Node000016" class="edge">
<title>Node1&#45;&gt;Node16</title>
<g id="a_edge19_Node000001_Node000016"><a xlink:title=" ">
<path fill="none" stroke="#63b8ff" d="M126.56,-37.66C176.68,-34.54 247.04,-30.15 299.06,-26.91"/>
<polygon fill="#63b8ff" stroke="#63b8ff" points="299.25,-30.41 309.02,-26.29 298.82,-23.42 299.25,-30.41"/>
</a>
</g>
</g>
<!-- Node3 -->
<g id="Node000003" class="node">
<title>Node3</title>
<g id="a_Node000003"><a xlink:href="memcontrol_8c.html#ab98eda6393d88d00f03d8d17e6bfcb64" target="_top" xlink:title=" ">
<polygon fill="white" stroke="#666666" points="422.25,-70.55 317.75,-70.55 317.75,-50.55 422.25,-50.55 422.25,-70.55"/>
<text xml:space="preserve" text-anchor="middle" x="370" y="-57.05" font-family="Helvetica,sans-Serif" font-size="10.00">folio_lruvec_lock_irq</text>
</a>
</g>
</g>
<!-- Node2&#45;&gt;Node3 -->
<g id="edge2_Node000002_Node000003" class="edge">
<title>Node2&#45;&gt;Node3</title>
<g id="a_edge2_Node000002_Node000003"><a xlink:title=" ">
<path fill="none" stroke="#63b8ff" d="M275.25,-60.55C285.25,-60.55 295.74,-60.55 305.94,-60.55"/>
<polygon fill="#63b8ff" stroke="#63b8ff" points="305.77,-64.05 315.77,-60.55 305.77,-57.05 305.77,-64.05"/>
</a>
</g>
</g>
<!-- Node13 -->
<g id="Node000013" class="node">
<title>Node13</title>
<g id="a_Node000013"><a xlink:href="memcontrol_8h.html#ac5d8653ec02d6f3cd3c2960d1634e4c8" target="_top" xlink:title=" ">
<polygon fill="white" stroke="#666666" points="574.75,-108.55 466.5,-108.55 466.5,-88.55 574.75,-88.55 574.75,-108.55"/>
<text xml:space="preserve" text-anchor="middle" x="520.62" y="-95.05" font-family="Helvetica,sans-Serif" font-size="10.00">folio_matches_lruvec</text>
</a>
</g>
</g>
<!-- Node2&#45;&gt;Node13 -->
<g id="edge13_Node000002_Node000013" class="edge">
<title>Node2&#45;&gt;Node13</title>
<g id="a_edge13_Node000002_Node000013"><a xlink:title=" ">
<path fill="none" stroke="#63b8ff" d="M264.99,-71.05C279.61,-74.15 295.94,-77.31 311,-79.55 359.01,-86.71 413.66,-91.56 454.98,-94.58"/>
<polygon fill="#63b8ff" stroke="#63b8ff" points="454.53,-98.05 464.75,-95.27 455.02,-91.07 454.53,-98.05"/>
</a>
</g>
</g>
<!-- Node2&#45;&gt;Node16 -->
<g id="edge18_Node000002_Node000016" class="edge">
<title>Node2&#45;&gt;Node16</title>
<g id="a_edge18_Node000002_Node000016"><a xlink:title=" ">
<path fill="none" stroke="#63b8ff" d="M260.84,-50.07C278.14,-45.67 298.47,-40.49 316.81,-35.83"/>
<polygon fill="#63b8ff" stroke="#63b8ff" points="317.63,-39.23 326.45,-33.38 315.9,-32.45 317.63,-39.23"/>
</a>
</g>
</g>
<!-- Node4 -->
<g id="Node000004" class="node">
<title>Node4</title>
<g id="a_Node000004"><a xlink:href="memcontrol_8h.html#a1e06f02938d0e5c7232ba8cc6134a637" target="_top" xlink:title=" ">
<polygon fill="white" stroke="#666666" points="553.38,-32.55 487.88,-32.55 487.88,-12.55 553.38,-12.55 553.38,-32.55"/>
<text xml:space="preserve" text-anchor="middle" x="520.62" y="-19.05" font-family="Helvetica,sans-Serif" font-size="10.00">folio_lruvec</text>
</a>
</g>
</g>
<!-- Node3&#45;&gt;Node4 -->
<g id="edge3_Node000003_Node000004" class="edge">
<title>Node3&#45;&gt;Node4</title>
<g id="a_edge3_Node000003_Node000004"><a xlink:title=" ">
<path fill="none" stroke="#63b8ff" d="M412.01,-50.07C432.16,-44.92 456.44,-38.71 476.83,-33.5"/>
<polygon fill="#63b8ff" stroke="#63b8ff" points="477.41,-36.96 486.24,-31.09 475.68,-30.18 477.41,-36.96"/>
</a>
</g>
</g>
<!-- Node12 -->
<g id="Node000012" class="node">
<title>Node12</title>
<g id="a_Node000012"><a xlink:href="memcontrol_8h.html#a208de46a0687170b4cd362e767a8bfb7" target="_top" xlink:title=" ">
<polygon fill="white" stroke="#666666" points="576.25,-70.55 465,-70.55 465,-50.55 576.25,-50.55 576.25,-70.55"/>
<text xml:space="preserve" text-anchor="middle" x="520.62" y="-57.05" font-family="Helvetica,sans-Serif" font-size="10.00">lruvec_memcg_debug</text>
</a>
</g>
</g>
<!-- Node3&#45;&gt;Node12 -->
<g id="edge12_Node000003_Node000012" class="edge">
<title>Node3&#45;&gt;Node12</title>
<g id="a_edge12_Node000003_Node000012"><a xlink:title=" ">
<path fill="none" stroke="#63b8ff" d="M422.56,-60.55C432.43,-60.55 442.89,-60.55 453.15,-60.55"/>
<polygon fill="#63b8ff" stroke="#63b8ff" points="453.09,-64.05 463.09,-60.55 453.09,-57.05 453.09,-64.05"/>
</a>
</g>
</g>
<!-- Node5 -->
<g id="Node000005" class="node">
<title>Node5</title>
<g id="a_Node000005"><a xlink:href="memcontrol_8h.html#a3f84ec97f7c4b5bbaa725fe9590de01b" target="_top" xlink:title=" ">
<polygon fill="white" stroke="#666666" points="699.88,-108.55 628.38,-108.55 628.38,-88.55 699.88,-88.55 699.88,-108.55"/>
<text xml:space="preserve" text-anchor="middle" x="664.12" y="-95.05" font-family="Helvetica,sans-Serif" font-size="10.00">folio_memcg</text>
</a>
</g>
</g>
<!-- Node4&#45;&gt;Node5 -->
<g id="edge4_Node000004_Node000005" class="edge">
<title>Node4&#45;&gt;Node5</title>
<g id="a_edge4_Node000004_Node000005"><a xlink:title=" ">
<path fill="none" stroke="#63b8ff" d="M553.73,-30.86C561.44,-33.62 569.42,-37.14 576.25,-41.55 595.79,-54.18 592.85,-66.71 612.25,-79.55 614.22,-80.85 616.28,-82.08 618.41,-83.24"/>
<polygon fill="#63b8ff" stroke="#63b8ff" points="616.79,-86.34 627.32,-87.49 619.8,-80.03 616.79,-86.34"/>
</a>
</g>
</g>
<!-- Node10 -->
<g id="Node000010" class="node">
<title>Node10</title>
<g id="a_Node000010"><a xlink:href="memcontrol_8h.html#af6f7132d96b1a36cca6b394b33d48ac9" target="_top" xlink:title=" ">
<polygon fill="white" stroke="#666666" points="865.5,-32.55 752,-32.55 752,-12.55 865.5,-12.55 865.5,-32.55"/>
<text xml:space="preserve" text-anchor="middle" x="808.75" y="-19.05" font-family="Helvetica,sans-Serif" font-size="10.00">mem_cgroup_disabled</text>
</a>
</g>
</g>
<!-- Node4&#45;&gt;Node10 -->
<g id="edge9_Node000004_Node000010" class="edge">
<title>Node4&#45;&gt;Node10</title>
<g id="a_edge9_Node000004_Node000010"><a xlink:title=" ">
<path fill="none" stroke="#63b8ff" d="M553.67,-14.15C570.89,-10.06 592.58,-5.59 612.25,-3.55 658.12,1.2 670.13,1.15 716,-3.55 728.89,-4.87 742.64,-7.21 755.47,-9.81"/>
<polygon fill="#63b8ff" stroke="#63b8ff" points="754.48,-13.17 764.99,-11.82 755.93,-6.33 754.48,-13.17"/>
</a>
</g>
</g>
<!-- Node11 -->
<g id="Node000011" class="node">
<title>Node11</title>
<g id="a_Node000011"><a xlink:href="memcontrol_8h.html#a3717ee774aaa0288e66018b1e2e530be" target="_top" xlink:title=" ">
<polygon fill="white" stroke="#666666" points="716,-32.55 612.25,-32.55 612.25,-12.55 716,-12.55 716,-32.55"/>
<text xml:space="preserve" text-anchor="middle" x="664.12" y="-19.05" font-family="Helvetica,sans-Serif" font-size="10.00">mem_cgroup_lruvec</text>
</a>
</g>
</g>
<!-- Node4&#45;&gt;Node11 -->
<g id="edge10_Node000004_Node000011" class="edge">
<title>Node4&#45;&gt;Node11</title>
<g id="a_edge10_Node000004_Node000011"><a xlink:title=" ">
<path fill="none" stroke="#63b8ff" d="M553.73,-22.55C567.71,-22.55 584.59,-22.55 600.87,-22.55"/>
<polygon fill="#63b8ff" stroke="#63b8ff" points="600.48,-26.05 610.48,-22.55 600.48,-19.05 600.48,-26.05"/>
</a>
</g>
</g>
<!-- Node6 -->
<g id="Node000006" class="node">
<title>Node6</title>
<g id="a_Node000006"><a xlink:href="memcontrol_8h.html#a7bf26a5be08f35a9c1ed785be6342bf8" target="_top" xlink:title=" ">
<polygon fill="white" stroke="#666666" points="849.75,-108.55 767.75,-108.55 767.75,-88.55 849.75,-88.55 849.75,-108.55"/>
<text xml:space="preserve" text-anchor="middle" x="808.75" y="-95.05" font-family="Helvetica,sans-Serif" font-size="10.00">__folio_memcg</text>
</a>
</g>
</g>
<!-- Node5&#45;&gt;Node6 -->
<g id="edge5_Node000005_Node000006" class="edge">
<title>Node5&#45;&gt;Node6</title>
<g id="a_edge5_Node000005_Node000006"><a xlink:title=" ">
<path fill="none" stroke="#63b8ff" d="M700.02,-98.55C716.88,-98.55 737.47,-98.55 756.11,-98.55"/>
<polygon fill="#63b8ff" stroke="#63b8ff" points="755.9,-102.05 765.9,-98.55 755.9,-95.05 755.9,-102.05"/>
</a>
</g>
</g>
<!-- Node7 -->
<g id="Node000007" class="node">
<title>Node7</title>
<g id="a_Node000007"><a xlink:href="memcontrol_8h.html#a1daf9b8c592b3c16cab38f50625011b1" target="_top" xlink:title=" ">
<polygon fill="white" stroke="#666666" points="845.25,-70.55 772.25,-70.55 772.25,-50.55 845.25,-50.55 845.25,-70.55"/>
<text xml:space="preserve" text-anchor="middle" x="808.75" y="-57.05" font-family="Helvetica,sans-Serif" font-size="10.00">__folio_objcg</text>
</a>
</g>
</g>
<!-- Node5&#45;&gt;Node7 -->
<g id="edge6_Node000005_Node000007" class="edge">
<title>Node5&#45;&gt;Node7</title>
<g id="a_edge6_Node000005_Node000007"><a xlink:title=" ">
<path fill="none" stroke="#63b8ff" d="M700.02,-89.26C718.44,-84.35 741.3,-78.26 761.21,-72.95"/>
<polygon fill="#63b8ff" stroke="#63b8ff" points="762.01,-76.36 770.77,-70.41 760.2,-69.6 762.01,-76.36"/>
</a>
</g>
</g>
<!-- Node8 -->
<g id="Node000008" class="node">
<title>Node8</title>
<g id="a_Node000008"><a xlink:href="memcontrol_8h.html#aa108014d5527134a8418446c80e9ed12" target="_top" xlink:title=" ">
<polygon fill="white" stroke="#666666" points="860.62,-184.55 756.88,-184.55 756.88,-164.55 860.62,-164.55 860.62,-184.55"/>
<text xml:space="preserve" text-anchor="middle" x="808.75" y="-171.05" font-family="Helvetica,sans-Serif" font-size="10.00">folio_memcg_kmem</text>
</a>
</g>
</g>
<!-- Node5&#45;&gt;Node8 -->
<g id="edge7_Node000005_Node000008" class="edge">
<title>Node5&#45;&gt;Node8</title>
<g id="a_edge7_Node000005_Node000008"><a xlink:title=" ">
<path fill="none" stroke="#63b8ff" d="M699.56,-108.96C705.27,-111.37 710.97,-114.22 716,-117.55 735.4,-130.4 732.42,-142.99 752,-155.55 754.13,-156.92 756.38,-158.2 758.69,-159.4"/>
<polygon fill="#63b8ff" stroke="#63b8ff" points="757.19,-162.57 767.75,-163.51 760.09,-156.19 757.19,-162.57"/>
</a>
</g>
</g>
<!-- Node9 -->
<g id="Node000009" class="node">
<title>Node9</title>
<g id="a_Node000009"><a xlink:href="memcontrol_8h.html#aa20397852a65f1c318a0bd5b1446b169" target="_top" xlink:title=" ">
<polygon fill="white" stroke="#666666" points="859.12,-146.55 758.38,-146.55 758.38,-126.55 859.12,-126.55 859.12,-146.55"/>
<text xml:space="preserve" text-anchor="middle" x="808.75" y="-133.05" font-family="Helvetica,sans-Serif" font-size="10.00">obj_cgroup_memcg</text>
</a>
</g>
</g>
<!-- Node5&#45;&gt;Node9 -->
<g id="edge8_Node000005_Node000009" class="edge">
<title>Node5&#45;&gt;Node9</title>
<g id="a_edge8_Node000005_Node000009"><a xlink:title=" ">
<path fill="none" stroke="#63b8ff" d="M700.02,-107.85C717.32,-112.46 738.53,-118.11 757.55,-123.18"/>
<polygon fill="#63b8ff" stroke="#63b8ff" points="756.42,-126.5 766.98,-125.69 758.22,-119.73 756.42,-126.5"/>
</a>
</g>
</g>
<!-- Node11&#45;&gt;Node10 -->
<g id="edge11_Node000011_Node000010" class="edge">
<title>Node11&#45;&gt;Node10</title>
<g id="a_edge11_Node000011_Node000010"><a xlink:title=" ">
<path fill="none" stroke="#63b8ff" d="M716.21,-22.55C724.04,-22.55 732.21,-22.55 740.32,-22.55"/>
<polygon fill="#63b8ff" stroke="#63b8ff" points="740.19,-26.05 750.19,-22.55 740.19,-19.05 740.19,-26.05"/>
</a>
</g>
</g>
<!-- Node13&#45;&gt;Node5 -->
<g id="edge14_Node000013_Node000005" class="edge">
<title>Node13&#45;&gt;Node5</title>
<g id="a_edge14_Node000013_Node000005"><a xlink:title=" ">
<path fill="none" stroke="#63b8ff" d="M575.12,-98.55C588.8,-98.55 603.4,-98.55 616.69,-98.55"/>
<polygon fill="#63b8ff" stroke="#63b8ff" points="616.47,-102.05 626.47,-98.55 616.47,-95.05 616.47,-102.05"/>
</a>
</g>
</g>
<!-- Node14 -->
<g id="Node000014" class="node">
<title>Node14</title>
<g id="a_Node000014"><a xlink:href="memcontrol_8h.html#a663d5383303493f1fdcef387c84cf349" target="_top" xlink:title=" ">
<polygon fill="white" stroke="#666666" points="704,-70.55 624.25,-70.55 624.25,-50.55 704,-50.55 704,-70.55"/>
<text xml:space="preserve" text-anchor="middle" x="664.12" y="-57.05" font-family="Helvetica,sans-Serif" font-size="10.00">lruvec_memcg</text>
</a>
</g>
</g>
<!-- Node13&#45;&gt;Node14 -->
<g id="edge15_Node000013_Node000014" class="edge">
<title>Node13&#45;&gt;Node14</title>
<g id="a_edge15_Node000013_Node000014"><a xlink:title=" ">
<path fill="none" stroke="#63b8ff" d="M560.67,-88.07C576.9,-83.71 595.95,-78.59 613.19,-73.96"/>
<polygon fill="#63b8ff" stroke="#63b8ff" points="614,-77.37 622.75,-71.4 612.18,-70.61 614,-77.37"/>
</a>
</g>
</g>
<!-- Node15 -->
<g id="Node000015" class="node">
<title>Node15</title>
<g id="a_Node000015"><a xlink:href="mmzone_8h.html#a6d5594b1c705a06e14e89d49a5a2308f" target="_top" xlink:title=" ">
<polygon fill="white" stroke="#666666" points="699.88,-146.55 628.38,-146.55 628.38,-126.55 699.88,-126.55 699.88,-146.55"/>
<text xml:space="preserve" text-anchor="middle" x="664.12" y="-133.05" font-family="Helvetica,sans-Serif" font-size="10.00">lruvec_pgdat</text>
</a>
</g>
</g>
<!-- Node13&#45;&gt;Node15 -->
<g id="edge17_Node000013_Node000015" class="edge">
<title>Node13&#45;&gt;Node15</title>
<g id="a_edge17_Node000013_Node000015"><a xlink:title=" ">
<path fill="none" stroke="#63b8ff" d="M560.67,-109.04C578.14,-113.73 598.88,-119.3 617.1,-124.19"/>
<polygon fill="#63b8ff" stroke="#63b8ff" points="616.05,-127.54 626.62,-126.75 617.87,-120.77 616.05,-127.54"/>
</a>
</g>
</g>
<!-- Node14&#45;&gt;Node10 -->
<g id="edge16_Node000014_Node000010" class="edge">
<title>Node14&#45;&gt;Node10</title>
<g id="a_edge16_Node000014_Node000010"><a xlink:title=" ">
<path fill="none" stroke="#63b8ff" d="M704.48,-50.07C720.84,-45.71 740.04,-40.59 757.42,-35.96"/>
<polygon fill="#63b8ff" stroke="#63b8ff" points="758.3,-39.35 767.07,-33.39 756.5,-32.59 758.3,-39.35"/>
</a>
</g>
</g>
</g>
</svg>
